<svg width="1440" height="770" viewBox="0 0 1440 770" fill="none" xmlns="http://www.w3.org/2000/svg">
<rect width="1444" height="770" transform="matrix(1 0 0 -1 0 770)" fill="white"/>
<mask id="mask0_61_2" style="mask-type:alpha" maskUnits="userSpaceOnUse" x="0" y="0" width="1444" height="770">
<rect width="1444" height="770" transform="matrix(1 0 0 -1 0 770)" fill="white"/>
</mask>
<g mask="url(#mask0_61_2)">
<path d="M-290.889 -787.529C-278.267 -812.09 -248.124 -821.768 -223.563 -809.145L1150.89 -102.773C1175.45 -90.1508 1185.13 -60.0081 1172.5 -35.4475L807.262 675.236C794.641 699.793 764.599 709.521 740.04 696.904C620.679 635.584 286.051 463.659 53.2228 343.919C-179.06 224.46 -514.924 51.9005 -634.587 -9.57606C-659.153 -22.1965 -668.747 -52.2979 -656.123 -76.8615L-290.889 -787.529Z" fill="url(#paint0_linear_61_2)"/>
<path d="M-290.889 -787.529C-278.267 -812.09 -248.124 -821.768 -223.563 -809.145L1150.89 -102.773C1175.45 -90.1508 1185.13 -60.0081 1172.5 -35.4475L807.262 675.236C794.641 699.793 764.599 709.521 740.04 696.904C620.679 635.584 286.051 463.659 53.2228 343.919C-179.06 224.46 -514.924 51.9005 -634.587 -9.57606C-659.153 -22.1965 -668.747 -52.2979 -656.123 -76.8615L-290.889 -787.529Z" fill="url(#paint1_linear_61_2)"/>
</g>
<defs>
<linearGradient id="paint0_linear_61_2" x1="885.5" y1="255" x2="29.5" y2="-723.5" gradientUnits="userSpaceOnUse">
<stop stop-color="#F5F2FD"/>
<stop offset="1" stop-color="#F5F2FD" stop-opacity="0"/>
<stop offset="1" stop-color="#F5F2FD" stop-opacity="0.096144"/>
</linearGradient>
<linearGradient id="paint1_linear_61_2" x1="885.5" y1="255" x2="29.5" y2="-723.5" gradientUnits="userSpaceOnUse">
<stop stop-color="#F5F2FD"/>
<stop offset="1" stop-color="#F5F2FD" stop-opacity="0"/>
<stop offset="1" stop-color="#F5F2FD" stop-opacity="0.096144"/>
</linearGradient>
</defs>
</svg>
