<svg width="1440" height="552" viewBox="0 0 1440 552" fill="none" xmlns="http://www.w3.org/2000/svg">
<rect width="1440" height="552" transform="matrix(1 0 0 -1 0 552)" fill="white"/>
<mask id="mask0_50_9" style="mask-type:alpha" maskUnits="userSpaceOnUse" x="0" y="0" width="1440" height="552">
<rect width="1440" height="552" transform="matrix(1 0 0 -1 0 552)" fill="white"/>
</mask>
<g mask="url(#mask0_50_9)">
<path d="M653.139 -1069.98C665.76 -1094.54 695.903 -1104.22 720.464 -1091.6L1998.45 -434.856C2023.01 -422.234 2032.69 -392.092 2020.06 -367.531L1546.48 554.031C1533.86 578.587 1503.92 588.368 1479.37 575.753C1365.5 517.268 1056.31 358.439 840.648 247.511C625.49 136.841 315.161 -22.5718 201.005 -81.2067C176.438 -93.8256 166.946 -123.875 179.569 -148.44L653.139 -1069.98Z" fill="#F9F7FF"/>
<path d="M-290.889 304.471C-278.267 279.91 -248.124 270.232 -223.563 282.855L1150.89 989.227C1175.45 1001.85 1185.13 1031.99 1172.5 1056.55L807.262 1767.24C794.641 1791.79 764.599 1801.52 740.04 1788.9C620.679 1727.58 286.051 1555.66 53.2228 1435.92C-179.06 1316.46 -514.924 1143.9 -634.587 1082.42C-659.153 1069.8 -668.747 1039.7 -656.123 1015.14L-290.889 304.471Z" fill="url(#paint0_linear_50_9)"/>
</g>
<rect x="848.603" y="160" width="274.996" height="197.82" rx="20" transform="rotate(25 848.603 160)" fill="white"/>
<mask id="mask1_50_9" style="mask-type:alpha" maskUnits="userSpaceOnUse" x="771" y="166" width="321" height="283">
<rect x="848.603" y="160" width="274.996" height="197.82" rx="20" transform="rotate(25 848.603 160)" fill="white"/>
</mask>
<g mask="url(#mask1_50_9)">
<path opacity="0.3" d="M804.101 319.906L789.783 350.611C787.358 355.811 789.608 361.993 794.808 364.418C800.009 366.843 806.191 364.593 808.616 359.393L822.933 328.688C825.358 323.487 823.109 317.306 817.908 314.881C812.708 312.456 806.526 314.706 804.101 319.906Z" fill="#7951F9"/>
<path opacity="0.3" d="M837.593 326.751L819.915 364.662C817.49 369.862 819.74 376.044 824.94 378.469C830.14 380.894 836.322 378.644 838.747 373.443L856.425 335.533C858.85 330.332 856.6 324.151 851.4 321.726C846.199 319.301 840.018 321.551 837.593 326.751Z" fill="#7951F9"/>
<path opacity="0.3" d="M856.385 365.12L850.046 378.712C847.621 383.912 849.871 390.094 855.072 392.519C860.272 394.944 866.454 392.694 868.879 387.494L875.217 373.901C877.642 368.701 875.392 362.519 870.192 360.094C864.991 357.669 858.81 359.919 856.385 365.12Z" fill="#7951F9"/>
<path opacity="0.3" d="M925.156 296.308L880.179 392.763C877.754 397.963 880.004 404.145 885.204 406.57C890.404 408.995 896.586 406.745 899.011 401.544L943.988 305.09C946.413 299.89 944.163 293.708 938.963 291.283C933.763 288.858 927.581 291.108 925.156 296.308Z" fill="#7951F9"/>
<path opacity="0.3" d="M936.347 350.423L910.145 406.615C907.694 411.87 909.968 418.118 915.224 420.568C920.479 423.019 926.727 420.745 929.177 415.49L955.38 359.298C957.83 354.043 955.557 347.795 950.301 345.345C945.045 342.894 938.798 345.168 936.347 350.423Z" fill="#7951F9"/>
<path opacity="0.3" d="M953.92 391.961L940.442 420.864C938.017 426.065 940.267 432.246 945.467 434.671C950.667 437.096 956.849 434.846 959.274 429.646L972.752 400.742C975.177 395.542 972.927 389.36 967.727 386.935C962.526 384.51 956.345 386.76 953.92 391.961Z" fill="#7951F9"/>
<path d="M1030.88 306.234L970.867 434.93C968.417 440.186 970.69 446.433 975.946 448.884C981.202 451.335 987.449 449.061 989.9 443.805L1049.91 315.109C1052.36 309.854 1050.09 303.607 1044.83 301.156C1039.58 298.705 1033.33 300.979 1030.88 306.234Z" fill="#7951F9"/>
</g>
<path d="M856.197 202.16C856.777 200.915 857.574 199.933 858.586 199.213C859.616 198.487 860.741 198.078 861.961 197.985C863.199 197.885 864.423 198.117 865.631 198.681C867.045 199.34 868.114 200.28 868.84 201.501C869.565 202.722 869.84 204.072 869.666 205.55L866.748 204.189C866.74 203.449 866.54 202.805 866.149 202.255C865.77 201.71 865.237 201.277 864.548 200.956C863.811 200.613 863.07 200.481 862.327 200.561C861.601 200.634 860.929 200.909 860.309 201.385C859.702 201.867 859.201 202.531 858.807 203.377C858.418 204.211 858.232 205.021 858.247 205.808C858.28 206.589 858.499 207.286 858.904 207.902C859.326 208.511 859.906 208.987 860.643 209.331C861.332 209.652 862.006 209.782 862.667 209.723C863.345 209.656 863.97 209.389 864.542 208.92L867.46 210.281C866.434 211.376 865.22 212.039 863.819 212.268C862.435 212.491 861.03 212.27 859.604 211.605C858.396 211.041 857.429 210.259 856.704 209.259C855.996 208.253 855.587 207.127 855.475 205.884C855.376 204.646 855.616 203.404 856.197 202.16ZM881.931 209.658L877.248 219.7L874.692 218.508L875.284 217.239C874.755 217.522 874.165 217.666 873.515 217.672C872.883 217.672 872.259 217.528 871.642 217.24C870.857 216.874 870.238 216.387 869.786 215.779C869.339 215.159 869.09 214.447 869.039 213.643C869.005 212.832 869.196 211.98 869.613 211.086L872.36 205.195L874.898 206.378L872.32 211.907C871.948 212.704 871.86 213.414 872.056 214.035C872.257 214.643 872.702 215.108 873.391 215.43C874.092 215.756 874.741 215.801 875.337 215.564C875.938 215.315 876.425 214.792 876.797 213.994L879.375 208.466L881.931 209.658ZM886.245 213.568C886.819 213.188 887.437 212.968 888.097 212.908C888.77 212.854 889.444 212.985 890.121 213.301L888.879 215.965L888.208 215.652C887.41 215.28 886.719 215.186 886.133 215.369C885.56 215.558 885.056 216.117 884.622 217.048L882.289 222.051L879.752 220.867L884.434 210.825L886.972 212.009L886.245 213.568ZM893.574 216.985C894.148 216.605 894.765 216.386 895.426 216.326C896.098 216.272 896.773 216.402 897.449 216.718L896.207 219.382L895.536 219.07C894.739 218.698 894.047 218.603 893.462 218.786C892.888 218.975 892.385 219.535 891.951 220.465L889.618 225.468L887.08 224.284L891.763 214.243L894.3 215.426L893.574 216.985ZM906.186 226.816C906.017 227.179 905.841 227.494 905.657 227.761L898.316 224.338C898.039 225.091 898.027 225.778 898.283 226.397C898.538 227.016 898.993 227.478 899.645 227.782C900.588 228.222 901.447 228.13 902.223 227.506L904.96 228.782C904.22 229.614 903.292 230.152 902.177 230.397C901.068 230.631 899.915 230.468 898.719 229.91C897.752 229.46 896.981 228.842 896.405 228.059C895.846 227.269 895.533 226.38 895.464 225.391C895.407 224.409 895.618 223.404 896.097 222.377C896.582 221.337 897.219 220.524 898.008 219.935C898.797 219.347 899.671 219.019 900.63 218.951C901.588 218.883 902.563 219.08 903.554 219.542C904.508 219.987 905.264 220.59 905.822 221.35C906.392 222.116 906.705 222.975 906.76 223.928C906.834 224.875 906.643 225.837 906.186 226.816ZM903.896 224.866C904.188 224.207 904.195 223.578 903.916 222.977C903.643 222.364 903.174 221.903 902.509 221.593C901.881 221.3 901.259 221.245 900.644 221.429C900.046 221.607 899.541 222.011 899.129 222.643L903.896 224.866ZM915.911 225.326C917.107 225.884 917.896 226.716 918.278 227.821C918.666 228.914 918.544 230.137 917.913 231.49L915.166 237.381L912.629 236.198L915.215 230.651C915.587 229.854 915.672 229.151 915.471 228.542C915.275 227.921 914.832 227.45 914.144 227.128C913.443 226.802 912.785 226.76 912.172 227.003C911.576 227.24 911.092 227.758 910.72 228.555L908.133 234.102L905.596 232.918L910.278 222.877L912.816 224.06L912.233 225.311C912.774 225.033 913.361 224.895 913.993 224.896C914.643 224.89 915.282 225.033 915.911 225.326ZM919.268 233.181C919.753 232.142 920.387 231.334 921.171 230.758C921.96 230.17 922.828 229.839 923.774 229.766C924.726 229.68 925.686 229.862 926.652 230.313C927.897 230.894 928.778 231.687 929.294 232.693C929.829 233.692 929.973 234.819 929.727 236.072L926.989 234.796C927.047 234.293 926.957 233.839 926.72 233.434C926.5 233.023 926.136 232.698 925.628 232.462C924.903 232.124 924.205 232.122 923.534 232.456C922.869 232.779 922.311 233.423 921.86 234.39C921.415 235.345 921.28 236.186 921.455 236.915C921.636 237.632 922.089 238.16 922.814 238.498C923.841 238.977 924.726 238.83 925.468 238.058L928.205 239.335C927.42 240.293 926.467 240.9 925.347 241.158C924.227 241.415 923.05 241.256 921.817 240.681C920.851 240.231 920.091 239.619 919.539 238.847C918.993 238.062 918.689 237.185 918.626 236.214C918.57 235.232 918.784 234.221 919.268 233.181ZM942.773 238.029L929.659 249.921L926.958 248.661L931.466 244.673L932.006 233.008L934.852 234.335L934.173 242.559L940.072 236.77L942.773 238.029Z" fill="#232D42"/>
<g filter="url(#filter0_d_50_9)">
<rect x="1084.6" y="79" width="274.996" height="197.82" rx="20" transform="rotate(25 1084.6 79)" fill="white"/>
</g>
<path opacity="0.5" d="M1223.2 279.379L1220.26 285.696L1219.43 285.311L1222.38 278.994L1223.2 279.379ZM1225.03 282.703L1223.66 285.63C1223.55 285.872 1223.52 286.068 1223.58 286.218C1223.64 286.363 1223.79 286.494 1224.04 286.613L1224.65 286.896L1224.33 287.594L1223.58 287.247C1223.12 287.033 1222.83 286.767 1222.7 286.448C1222.57 286.13 1222.61 285.729 1222.84 285.245L1224.2 282.318L1223.56 282.018L1223.88 281.338L1224.52 281.638L1225.1 280.388L1225.93 280.772L1225.35 282.023L1226.64 282.627L1226.33 283.307L1225.03 282.703ZM1231.47 287.668C1231.39 287.825 1231.31 287.987 1231.21 288.154L1227.24 286.303C1227.04 286.806 1227.03 287.268 1227.2 287.686C1227.38 288.102 1227.69 288.411 1228.12 288.614C1228.48 288.78 1228.81 288.837 1229.13 288.784C1229.45 288.727 1229.72 288.582 1229.95 288.35L1230.83 288.764C1230.48 289.179 1230.03 289.445 1229.49 289.561C1228.95 289.671 1228.39 289.588 1227.8 289.312C1227.33 289.092 1226.95 288.789 1226.68 288.403C1226.41 288.02 1226.26 287.585 1226.23 287.1C1226.2 286.609 1226.3 286.106 1226.54 285.593C1226.78 285.079 1227.09 284.677 1227.48 284.386C1227.87 284.095 1228.29 283.933 1228.76 283.899C1229.23 283.862 1229.71 283.957 1230.19 284.182C1230.66 284.402 1231.03 284.699 1231.3 285.074C1231.56 285.448 1231.71 285.862 1231.73 286.314C1231.77 286.764 1231.68 287.215 1231.47 287.668ZM1230.7 287.099C1230.84 286.785 1230.9 286.483 1230.86 286.195C1230.83 285.901 1230.72 285.64 1230.53 285.412C1230.35 285.181 1230.12 284.998 1229.83 284.863C1229.41 284.669 1228.99 284.635 1228.57 284.763C1228.16 284.894 1227.82 285.185 1227.56 285.636L1230.7 287.099ZM1240 288.746C1240.39 288.927 1240.69 289.169 1240.92 289.473C1241.15 289.771 1241.28 290.121 1241.3 290.523C1241.33 290.925 1241.23 291.355 1241.02 291.814L1239.66 294.742L1238.84 294.361L1240.15 291.552C1240.38 291.056 1240.43 290.621 1240.31 290.246C1240.19 289.867 1239.92 289.581 1239.5 289.386C1239.08 289.186 1238.67 289.166 1238.29 289.326C1237.91 289.479 1237.59 289.816 1237.35 290.335L1236.08 293.072L1235.26 292.692L1236.57 289.883C1236.8 289.387 1236.85 288.952 1236.73 288.576C1236.61 288.198 1236.34 287.911 1235.92 287.717C1235.5 287.517 1235.09 287.497 1234.71 287.656C1234.33 287.81 1234.01 288.146 1233.77 288.666L1232.5 291.403L1231.67 291.018L1233.99 286.052L1234.81 286.437L1234.48 287.152C1234.76 286.969 1235.07 286.871 1235.41 286.859C1235.75 286.849 1236.09 286.922 1236.42 287.077C1236.84 287.271 1237.16 287.537 1237.4 287.874C1237.63 288.21 1237.74 288.596 1237.73 289.032C1238.03 288.747 1238.39 288.582 1238.8 288.538C1239.21 288.494 1239.61 288.563 1240 288.746ZM1246.5 290.872L1246.85 290.12L1248.56 290.915L1245.5 297.467L1244.67 297.078L1247.37 291.278L1246.5 290.872Z" fill="#232D42"/>
<circle cx="1202.72" cy="272.002" r="4" transform="rotate(25 1202.72 272.002)" fill="#7951F9"/>
<path opacity="0.5" d="M1203.76 321.069L1200.82 327.386L1199.99 327.001L1202.94 320.684L1203.76 321.069ZM1205.59 324.392L1204.22 327.32C1204.11 327.562 1204.08 327.758 1204.14 327.908C1204.19 328.053 1204.35 328.184 1204.6 328.303L1205.21 328.586L1204.89 329.284L1204.14 328.937C1203.68 328.723 1203.39 328.457 1203.26 328.138C1203.13 327.82 1203.17 327.419 1203.4 326.935L1204.76 324.008L1204.12 323.708L1204.44 323.028L1205.08 323.328L1205.66 322.077L1206.49 322.462L1205.91 323.713L1207.2 324.317L1206.89 324.997L1205.59 324.392ZM1212.03 329.358C1211.95 329.515 1211.87 329.677 1211.77 329.844L1207.8 327.993C1207.6 328.496 1207.59 328.958 1207.76 329.376C1207.94 329.792 1208.25 330.101 1208.68 330.304C1209.04 330.47 1209.37 330.527 1209.69 330.473C1210.01 330.417 1210.28 330.272 1210.51 330.039L1211.39 330.454C1211.04 330.869 1210.59 331.135 1210.05 331.251C1209.51 331.361 1208.95 331.278 1208.36 331.002C1207.89 330.782 1207.51 330.479 1207.24 330.093C1206.97 329.71 1206.82 329.275 1206.79 328.79C1206.76 328.299 1206.86 327.796 1207.1 327.283C1207.34 326.769 1207.65 326.367 1208.04 326.076C1208.43 325.785 1208.85 325.623 1209.32 325.589C1209.79 325.552 1210.27 325.647 1210.75 325.872C1211.22 326.092 1211.59 326.389 1211.86 326.763C1212.12 327.138 1212.27 327.552 1212.29 328.004C1212.33 328.454 1212.24 328.905 1212.03 329.358ZM1211.25 328.789C1211.4 328.475 1211.46 328.173 1211.42 327.885C1211.39 327.59 1211.28 327.33 1211.09 327.102C1210.91 326.871 1210.68 326.688 1210.39 326.553C1209.97 326.359 1209.55 326.325 1209.13 326.453C1208.72 326.584 1208.38 326.875 1208.12 327.326L1211.25 328.789ZM1220.56 330.436C1220.95 330.617 1221.25 330.859 1221.48 331.163C1221.71 331.461 1221.84 331.811 1221.86 332.213C1221.89 332.615 1221.79 333.045 1221.58 333.504L1220.22 336.432L1219.4 336.051L1220.71 333.242C1220.94 332.746 1220.99 332.311 1220.87 331.936C1220.75 331.557 1220.48 331.271 1220.06 331.076C1219.64 330.876 1219.23 330.856 1218.85 331.016C1218.47 331.169 1218.15 331.506 1217.91 332.025L1216.64 334.762L1215.82 334.382L1217.13 331.572C1217.36 331.077 1217.41 330.642 1217.29 330.266C1217.17 329.888 1216.9 329.601 1216.48 329.407C1216.06 329.207 1215.65 329.187 1215.27 329.346C1214.89 329.5 1214.57 329.836 1214.33 330.356L1213.06 333.093L1212.23 332.708L1214.55 327.742L1215.37 328.126L1215.04 328.842C1215.32 328.659 1215.63 328.561 1215.97 328.549C1216.31 328.539 1216.65 328.612 1216.98 328.767C1217.4 328.961 1217.72 329.227 1217.96 329.564C1218.19 329.9 1218.3 330.286 1218.29 330.722C1218.59 330.436 1218.95 330.272 1219.36 330.228C1219.77 330.184 1220.17 330.253 1220.56 330.436ZM1226.84 333.552C1227.14 333.016 1227.56 332.681 1228.09 332.547C1228.63 332.414 1229.2 332.49 1229.82 332.778C1230.23 332.969 1230.55 333.21 1230.77 333.499C1231.01 333.785 1231.14 334.09 1231.17 334.414C1231.21 334.741 1231.16 335.064 1231.01 335.385C1230.83 335.759 1230.57 336.032 1230.23 336.202C1229.89 336.376 1229.53 336.421 1229.15 336.339L1229.13 336.384C1229.48 336.664 1229.7 337 1229.8 337.391C1229.89 337.782 1229.84 338.207 1229.62 338.666C1229.46 339.01 1229.24 339.285 1228.95 339.49C1228.67 339.688 1228.33 339.793 1227.94 339.804C1227.56 339.814 1227.14 339.717 1226.7 339.511C1226.06 339.212 1225.61 338.801 1225.36 338.277C1225.1 337.747 1225.1 337.163 1225.33 336.524L1226.13 336.896C1226.01 337.278 1226.02 337.643 1226.16 337.991C1226.31 338.339 1226.59 338.612 1227.02 338.809C1227.44 339.006 1227.81 339.047 1228.13 338.931C1228.46 338.811 1228.7 338.576 1228.87 338.226C1229.08 337.773 1229.08 337.376 1228.87 337.036C1228.66 336.696 1228.25 336.383 1227.64 336.099L1227.43 336.001L1227.75 335.313L1227.97 335.414C1228.53 335.667 1228.99 335.772 1229.36 335.73C1229.73 335.681 1230 335.469 1230.17 335.094C1230.32 334.774 1230.34 334.468 1230.21 334.176C1230.1 333.887 1229.85 333.652 1229.46 333.472C1229.09 333.297 1228.74 333.253 1228.42 333.339C1228.1 333.426 1227.84 333.622 1227.65 333.929L1226.84 333.552Z" fill="#232D42"/>
<circle cx="1183.28" cy="313.692" r="4" transform="rotate(25 1183.28 313.692)" fill="#25CADF"/>
<path opacity="0.5" d="M1213.48 300.224L1210.54 306.541L1209.71 306.156L1212.66 299.839L1213.48 300.224ZM1215.31 303.548L1213.94 306.475C1213.83 306.717 1213.8 306.913 1213.86 307.064C1213.92 307.208 1214.07 307.34 1214.32 307.458L1214.93 307.741L1214.61 308.439L1213.86 308.092C1213.4 307.878 1213.11 307.612 1212.98 307.293C1212.85 306.975 1212.89 306.574 1213.12 306.091L1214.48 303.163L1213.84 302.863L1214.16 302.183L1214.8 302.483L1215.38 301.233L1216.21 301.617L1215.63 302.868L1216.92 303.472L1216.61 304.152L1215.31 303.548ZM1221.75 308.513C1221.67 308.671 1221.59 308.832 1221.49 308.999L1217.52 307.148C1217.32 307.652 1217.31 308.113 1217.48 308.532C1217.66 308.947 1217.97 309.256 1218.4 309.459C1218.76 309.625 1219.09 309.682 1219.41 309.629C1219.73 309.572 1220 309.428 1220.23 309.195L1221.11 309.609C1220.76 310.024 1220.31 310.29 1219.77 310.406C1219.23 310.516 1218.67 310.433 1218.08 310.157C1217.61 309.937 1217.23 309.634 1216.96 309.248C1216.69 308.865 1216.54 308.431 1216.51 307.945C1216.48 307.454 1216.58 306.951 1216.82 306.438C1217.06 305.924 1217.37 305.522 1217.76 305.231C1218.15 304.94 1218.57 304.778 1219.04 304.744C1219.51 304.708 1219.99 304.802 1220.47 305.027C1220.94 305.247 1221.31 305.544 1221.58 305.919C1221.84 306.293 1221.99 306.707 1222.01 307.16C1222.05 307.609 1221.96 308.06 1221.75 308.513ZM1220.97 307.944C1221.12 307.63 1221.18 307.329 1221.14 307.04C1221.11 306.746 1221 306.485 1220.81 306.257C1220.63 306.027 1220.4 305.844 1220.11 305.708C1219.69 305.514 1219.27 305.481 1218.85 305.608C1218.44 305.739 1218.1 306.03 1217.84 306.482L1220.97 307.944ZM1230.28 309.592C1230.67 309.772 1230.97 310.014 1231.2 310.318C1231.43 310.616 1231.56 310.966 1231.58 311.368C1231.61 311.77 1231.51 312.2 1231.3 312.66L1229.94 315.587L1229.12 315.207L1230.43 312.397C1230.66 311.902 1230.71 311.466 1230.59 311.091C1230.47 310.712 1230.2 310.426 1229.78 310.231C1229.36 310.031 1228.95 310.011 1228.57 310.171C1228.19 310.324 1227.87 310.661 1227.63 311.181L1226.36 313.918L1225.54 313.537L1226.85 310.728C1227.08 310.232 1227.13 309.797 1227.01 309.422C1226.89 309.043 1226.62 308.757 1226.2 308.562C1225.78 308.362 1225.37 308.342 1224.99 308.501C1224.61 308.655 1224.29 308.992 1224.05 309.511L1222.78 312.248L1221.95 311.864L1224.27 306.897L1225.09 307.282L1224.76 307.998C1225.04 307.814 1225.35 307.716 1225.69 307.704C1226.03 307.694 1226.37 307.767 1226.7 307.922C1227.12 308.117 1227.44 308.382 1227.68 308.719C1227.91 309.055 1228.02 309.442 1228.01 309.877C1228.31 309.592 1228.67 309.427 1229.08 309.383C1229.49 309.339 1229.89 309.408 1230.28 309.592ZM1234.5 316.911C1235.56 316.653 1236.39 316.429 1237.01 316.239C1237.63 316.043 1238.19 315.799 1238.69 315.508C1239.19 315.214 1239.54 314.859 1239.74 314.442C1239.92 314.049 1239.97 313.696 1239.88 313.382C1239.8 313.065 1239.55 312.808 1239.12 312.611C1238.71 312.419 1238.33 312.4 1237.98 312.553C1237.64 312.702 1237.36 312.987 1237.14 313.408L1236.34 313.036C1236.68 312.37 1237.13 311.943 1237.69 311.755C1238.25 311.567 1238.83 311.615 1239.44 311.9C1240.07 312.19 1240.48 312.592 1240.68 313.105C1240.89 313.621 1240.85 314.182 1240.57 314.786C1240.34 315.287 1239.96 315.706 1239.43 316.043C1238.92 316.376 1238.38 316.635 1237.83 316.82C1237.29 316.999 1236.61 317.189 1235.79 317.39L1238.91 318.844L1238.59 319.533L1234.23 317.5L1234.5 316.911Z" fill="#232D42"/>
<circle cx="1193" cy="292.847" r="4" transform="rotate(25 1193 292.847)" fill="#EC9C27"/>
<circle cx="1129.77" cy="209.296" r="61" transform="rotate(25 1129.77 209.296)" fill="#F9F7FF"/>
<path d="M1190.49 203.486C1191.69 215.97 1189 228.519 1182.81 239.424C1176.62 250.328 1167.21 259.059 1155.88 264.427C1144.54 269.794 1131.83 271.538 1119.47 269.42C1107.11 267.302 1095.7 261.426 1086.8 252.591L1129.77 209.296L1190.49 203.486Z" fill="#7951F9"/>
<path d="M1108.91 151.975C1117.75 148.754 1127.23 147.626 1136.59 148.678C1145.95 149.731 1154.93 152.936 1162.85 158.042C1170.76 163.148 1177.38 170.017 1182.19 178.111C1187.01 186.204 1189.88 195.302 1190.59 204.692L1129.77 209.296L1108.91 151.975Z" fill="#FD4C5C"/>
<path d="M1087.2 252.99C1081.09 247.032 1076.29 239.857 1073.12 231.929L1129.77 209.296L1087.2 252.99Z" fill="#25CADF"/>
<g filter="url(#filter1_dd_50_9)">
<path d="M1133.69 172.503C1134.62 170.501 1137 169.635 1139 170.568L1161.66 181.134C1163.66 182.067 1164.53 184.447 1163.59 186.45L1159.2 195.875C1158.26 197.877 1155.88 198.744 1153.88 197.81L1146.83 194.52L1140.61 196.696L1138.28 190.535L1131.22 187.244C1129.22 186.311 1128.36 183.931 1129.29 181.929L1133.69 172.503Z" fill="white"/>
</g>
<path d="M1142.21 183.119C1142.07 183.421 1141.86 183.67 1141.58 183.865C1141.31 184.064 1140.99 184.186 1140.62 184.232C1140.25 184.281 1139.86 184.232 1139.45 184.085L1139.11 184.819L1138.52 184.544L1138.86 183.81C1138.32 183.491 1137.94 183.098 1137.73 182.633C1137.52 182.167 1137.53 181.687 1137.76 181.191L1138.87 181.707C1138.78 181.951 1138.76 182.183 1138.82 182.402C1138.88 182.615 1139.03 182.8 1139.26 182.958L1140.19 180.964C1139.83 180.673 1139.55 180.416 1139.34 180.195C1139.14 179.968 1139 179.698 1138.93 179.384C1138.86 179.072 1138.92 178.717 1139.1 178.318C1139.34 177.817 1139.71 177.485 1140.21 177.322C1140.71 177.153 1141.26 177.174 1141.86 177.384L1142.2 176.65L1142.79 176.925L1142.45 177.659C1142.96 177.955 1143.3 178.323 1143.49 178.762C1143.68 179.198 1143.68 179.677 1143.49 180.198L1142.38 179.683C1142.45 179.487 1142.46 179.287 1142.4 179.083C1142.34 178.873 1142.22 178.691 1142.04 178.538L1141.12 180.496C1141.48 180.781 1141.76 181.037 1141.97 181.264C1142.17 181.486 1142.31 181.752 1142.38 182.063C1142.45 182.368 1142.39 182.72 1142.21 183.119ZM1140.18 178.754C1140.07 179.002 1140.05 179.229 1140.13 179.436C1140.21 179.645 1140.37 179.856 1140.61 180.067L1141.46 178.236C1141.19 178.145 1140.93 178.142 1140.7 178.226C1140.48 178.312 1140.3 178.488 1140.18 178.754ZM1139.85 183.233C1140.13 183.314 1140.39 183.306 1140.62 183.207C1140.85 183.102 1141.03 182.929 1141.14 182.687C1141.25 182.446 1141.26 182.223 1141.17 182.02C1141.09 181.813 1140.94 181.604 1140.7 181.393L1139.85 183.233ZM1144.47 184.647C1145.28 184.416 1145.93 184.218 1146.41 184.053C1146.9 183.884 1147.34 183.677 1147.73 183.431C1148.11 183.185 1148.39 182.886 1148.55 182.536C1148.72 182.173 1148.76 181.849 1148.69 181.561C1148.61 181.277 1148.39 181.049 1148.02 180.877C1147.67 180.711 1147.33 180.696 1147.03 180.833C1146.73 180.966 1146.49 181.22 1146.3 181.595L1145.3 181.13C1145.64 180.45 1146.09 180.02 1146.65 179.841C1147.22 179.658 1147.81 179.709 1148.42 179.994C1149.08 180.301 1149.51 180.722 1149.71 181.256C1149.92 181.793 1149.88 182.364 1149.6 182.968C1149.39 183.403 1149.09 183.771 1148.67 184.072C1148.27 184.369 1147.84 184.606 1147.38 184.782C1146.93 184.956 1146.38 185.141 1145.71 185.338L1145.13 185.51L1148.01 186.85L1147.61 187.711L1143.2 185.657L1143.55 184.905L1144.47 184.647ZM1155.76 184.661L1152.72 183.246L1151.88 185.049C1152.09 184.939 1152.34 184.885 1152.64 184.885C1152.95 184.889 1153.25 184.957 1153.53 185.089C1154.04 185.326 1154.4 185.626 1154.61 185.99C1154.83 186.357 1154.93 186.738 1154.91 187.132C1154.89 187.529 1154.8 187.912 1154.62 188.281C1154.41 188.728 1154.14 189.086 1153.8 189.354C1153.47 189.62 1153.09 189.772 1152.65 189.811C1152.22 189.852 1151.76 189.758 1151.26 189.527C1150.6 189.22 1150.15 188.81 1149.9 188.298C1149.66 187.785 1149.62 187.242 1149.79 186.668L1150.8 187.137C1150.73 187.452 1150.77 187.747 1150.93 188.024C1151.08 188.294 1151.33 188.509 1151.67 188.67C1152.1 188.87 1152.48 188.889 1152.81 188.728C1153.15 188.57 1153.42 188.276 1153.62 187.847C1153.83 187.412 1153.87 187.029 1153.76 186.698C1153.65 186.361 1153.39 186.094 1152.97 185.897C1152.67 185.758 1152.38 185.717 1152.11 185.772C1151.84 185.824 1151.6 185.956 1151.39 186.168L1150.41 185.711L1152.19 181.896L1156.18 183.755L1155.76 184.661Z" fill="#232D42"/>
<path d="M1246.48 183.218L1242.83 191.048C1242.43 191.906 1242.35 192.669 1242.58 193.337C1242.82 193.992 1243.34 194.509 1244.15 194.887C1244.97 195.27 1245.71 195.342 1246.37 195.103C1247.03 194.853 1247.56 194.298 1247.96 193.44L1251.61 185.61L1254.17 186.802L1250.53 194.614C1250.02 195.69 1249.36 196.492 1248.54 197.021C1247.74 197.544 1246.86 197.81 1245.9 197.818C1244.95 197.832 1244 197.617 1243.04 197.172C1242.1 196.732 1241.33 196.145 1240.73 195.41C1240.14 194.68 1239.8 193.842 1239.7 192.897C1239.6 191.939 1239.8 190.922 1240.3 189.847L1243.94 182.035L1246.48 183.218ZM1254.49 202.552C1253.67 202.169 1253 201.68 1252.48 201.086C1251.97 200.479 1251.64 199.832 1251.49 199.145C1251.35 198.462 1251.4 197.805 1251.66 197.171L1254.21 198.363C1254.08 198.772 1254.12 199.18 1254.33 199.586C1254.55 199.997 1254.9 200.319 1255.4 200.55C1255.88 200.775 1256.3 200.853 1256.66 200.784C1257.03 200.72 1257.28 200.537 1257.42 200.235C1257.57 199.909 1257.52 199.588 1257.25 199.273C1257 198.952 1256.56 198.526 1255.93 197.994C1255.26 197.464 1254.73 196.989 1254.34 196.57C1253.96 196.157 1253.69 195.669 1253.52 195.107C1253.37 194.551 1253.45 193.934 1253.77 193.257C1254.03 192.701 1254.42 192.267 1254.95 191.954C1255.49 191.647 1256.12 191.499 1256.83 191.509C1257.56 191.525 1258.33 191.722 1259.14 192.099C1260.34 192.657 1261.15 193.405 1261.58 194.341C1262.02 195.266 1262.04 196.252 1261.64 197.301L1259.21 196.169C1259.36 195.753 1259.33 195.36 1259.14 194.99C1258.96 194.613 1258.63 194.309 1258.13 194.078C1257.67 193.863 1257.27 193.782 1256.94 193.833C1256.62 193.889 1256.39 194.068 1256.25 194.371C1256.09 194.709 1256.14 195.048 1256.39 195.387C1256.65 195.714 1257.1 196.134 1257.73 196.648C1258.37 197.167 1258.88 197.633 1259.26 198.046C1259.64 198.459 1259.9 198.95 1260.05 199.519C1260.21 200.081 1260.15 200.697 1259.85 201.368C1259.58 201.948 1259.17 202.391 1258.63 202.698C1258.11 203.011 1257.48 203.159 1256.75 203.143C1256.04 203.121 1255.28 202.924 1254.49 202.552ZM1272.38 204.317C1272.21 204.68 1272.03 204.995 1271.85 205.262L1264.51 201.839C1264.23 202.592 1264.22 203.279 1264.47 203.898C1264.73 204.517 1265.18 204.979 1265.83 205.284C1266.78 205.723 1267.64 205.631 1268.41 205.007L1271.15 206.284C1270.41 207.115 1269.48 207.653 1268.37 207.899C1267.26 208.132 1266.1 207.969 1264.91 207.412C1263.94 206.961 1263.17 206.344 1262.59 205.56C1262.04 204.77 1261.72 203.881 1261.65 202.892C1261.6 201.91 1261.81 200.905 1262.29 199.878C1262.77 198.838 1263.41 198.025 1264.2 197.436C1264.99 196.848 1265.86 196.52 1266.82 196.452C1267.78 196.384 1268.75 196.581 1269.74 197.043C1270.7 197.489 1271.45 198.091 1272.01 198.851C1272.58 199.617 1272.89 200.477 1272.95 201.43C1273.02 202.376 1272.83 203.339 1272.38 204.317ZM1270.09 202.367C1270.38 201.709 1270.38 201.079 1270.1 200.478C1269.83 199.865 1269.36 199.404 1268.7 199.094C1268.07 198.801 1267.45 198.746 1266.83 198.93C1266.23 199.108 1265.73 199.512 1265.32 200.144L1270.09 202.367ZM1278.28 203.12C1278.85 202.74 1279.47 202.521 1280.13 202.461C1280.8 202.407 1281.48 202.537 1282.15 202.853L1280.91 205.518L1280.24 205.205C1279.44 204.833 1278.75 204.738 1278.17 204.921C1277.59 205.11 1277.09 205.67 1276.66 206.6L1274.32 211.603L1271.78 210.42L1276.47 200.378L1279.01 201.561L1278.28 203.12ZM1282.88 215.792C1282.06 215.409 1281.39 214.92 1280.87 214.326C1280.36 213.719 1280.03 213.072 1279.88 212.384C1279.74 211.702 1279.8 211.044 1280.05 210.411L1282.6 211.603C1282.47 212.012 1282.51 212.42 1282.72 212.826C1282.94 213.237 1283.3 213.559 1283.79 213.79C1284.27 214.015 1284.69 214.093 1285.05 214.024C1285.42 213.96 1285.67 213.777 1285.81 213.475C1285.97 213.149 1285.91 212.828 1285.64 212.513C1285.4 212.192 1284.96 211.765 1284.32 211.234C1283.66 210.703 1283.13 210.229 1282.73 209.81C1282.35 209.397 1282.08 208.909 1281.92 208.347C1281.76 207.79 1281.84 207.174 1282.16 206.497C1282.42 205.941 1282.81 205.507 1283.34 205.194C1283.88 204.887 1284.51 204.739 1285.23 204.749C1285.95 204.765 1286.72 204.962 1287.53 205.339C1288.73 205.897 1289.54 206.644 1289.97 207.581C1290.41 208.506 1290.43 209.492 1290.03 210.541L1287.6 209.409C1287.75 208.993 1287.73 208.6 1287.53 208.229C1287.35 207.852 1287.02 207.548 1286.52 207.317C1286.06 207.103 1285.67 207.022 1285.33 207.073C1285.01 207.129 1284.78 207.308 1284.64 207.61C1284.48 207.949 1284.53 208.287 1284.79 208.626C1285.05 208.953 1285.49 209.374 1286.12 209.887C1286.76 210.407 1287.27 210.873 1287.65 211.286C1288.03 211.699 1288.3 212.19 1288.44 212.759C1288.61 213.321 1288.54 213.937 1288.24 214.607C1287.97 215.188 1287.57 215.631 1287.03 215.938C1286.5 216.251 1285.87 216.399 1285.14 216.383C1284.43 216.361 1283.68 216.164 1282.88 215.792Z" fill="#232D42"/>
<defs>
<filter id="filter0_d_50_9" x="847.574" y="45.5737" width="519.687" height="482.357" filterUnits="userSpaceOnUse" color-interpolation-filters="sRGB">
<feFlood flood-opacity="0" result="BackgroundImageFix"/>
<feColorMatrix in="SourceAlpha" type="matrix" values="0 0 0 0 0 0 0 0 0 0 0 0 0 0 0 0 0 0 127 0" result="hardAlpha"/>
<feOffset dx="-60" dy="60"/>
<feGaussianBlur stdDeviation="50"/>
<feColorMatrix type="matrix" values="0 0 0 0 0.62862 0 0 0 0 0.557604 0 0 0 0 0.841667 0 0 0 0.3 0"/>
<feBlend mode="normal" in2="BackgroundImageFix" result="effect1_dropShadow_50_9"/>
<feBlend mode="normal" in="SourceGraphic" in2="effect1_dropShadow_50_9" result="shape"/>
</filter>
<filter id="filter1_dd_50_9" x="1104.91" y="150.193" width="83.0548" height="75.9927" filterUnits="userSpaceOnUse" color-interpolation-filters="sRGB">
<feFlood flood-opacity="0" result="BackgroundImageFix"/>
<feColorMatrix in="SourceAlpha" type="matrix" values="0 0 0 0 0 0 0 0 0 0 0 0 0 0 0 0 0 0 127 0" result="hardAlpha"/>
<feOffset dy="4"/>
<feGaussianBlur stdDeviation="12"/>
<feColorMatrix type="matrix" values="0 0 0 0 0 0 0 0 0 0 0 0 0 0 0 0 0 0 0.08 0"/>
<feBlend mode="normal" in2="BackgroundImageFix" result="effect1_dropShadow_50_9"/>
<feColorMatrix in="SourceAlpha" type="matrix" values="0 0 0 0 0 0 0 0 0 0 0 0 0 0 0 0 0 0 127 0" result="hardAlpha"/>
<feOffset dy="2"/>
<feGaussianBlur stdDeviation="2"/>
<feColorMatrix type="matrix" values="0 0 0 0 0 0 0 0 0 0 0 0 0 0 0 0 0 0 0.08 0"/>
<feBlend mode="normal" in2="effect1_dropShadow_50_9" result="effect2_dropShadow_50_9"/>
<feBlend mode="normal" in="SourceGraphic" in2="effect2_dropShadow_50_9" result="shape"/>
</filter>
<linearGradient id="paint0_linear_50_9" x1="885.5" y1="1347" x2="29.5" y2="368.5" gradientUnits="userSpaceOnUse">
<stop stop-color="#F5F2FD"/>
<stop offset="1" stop-color="#F5F2FD" stop-opacity="0"/>
<stop offset="1" stop-color="#F5F2FD" stop-opacity="0.096144"/>
</linearGradient>
</defs>
</svg>
