<svg width="1440" height="530" viewBox="0 0 1440 530" fill="none" xmlns="http://www.w3.org/2000/svg">
<rect width="1440" height="530" fill="white"/>
<mask id="mask0_42_3" style="mask-type:alpha" maskUnits="userSpaceOnUse" x="0" y="0" width="1441" height="530">
<rect x="0.000244141" width="1440" height="530" fill="white"/>
</mask>
<g mask="url(#mask0_42_3)">
<path d="M273.139 -546.98C285.761 -571.541 315.903 -581.219 340.464 -568.598L1618.45 88.144C1643.01 100.766 1652.69 130.908 1640.07 155.469L1166.48 1077.03C1153.87 1101.59 1123.93 1111.37 1099.37 1098.75C985.501 1040.27 676.309 881.439 460.648 770.511C245.49 659.841 -64.8384 500.428 -178.994 441.793C-203.562 429.174 -213.054 399.125 -200.43 374.56L273.139 -546.98Z" fill="#F9F7FF"/>
</g>
<g filter="url(#filter0_d_42_3)">
<rect x="46.683" y="276.872" width="273.996" height="196.82" rx="19.5" transform="rotate(-30 46.683 276.872)" fill="white" stroke="#F1ECFF"/>
<mask id="mask1_42_3" style="mask-type:alpha" maskUnits="userSpaceOnUse" x="53" y="146" width="324" height="295">
<rect x="46.3313" y="276.498" width="274.996" height="197.82" rx="20" transform="rotate(-30 46.3313 276.498)" fill="white"/>
</mask>
<g mask="url(#mask1_42_3)">
<path d="M99.2417 374.907L102.887 345.805L120.789 335.469L118.109 287.829L131.336 269.395L146.838 253.247L181.56 270.39L193.748 250.157L200.938 219.613L233.905 235.37L237.459 198.528L278.415 226.468L296.836 217.032L310.78 198.185L343.227 213.042L367.56 212.19" stroke="#7951F9" stroke-width="2"/>
<path d="M92.5802 370.95L101.329 343.105L125.465 343.566L133.693 314.822L140.687 285.591L167.617 289.237L164.417 240.698L190.112 243.859L227.951 266.401L244.814 254.265L258.238 234.518L276.856 223.769L302.551 226.929L330 231.476L348.942 222.94L367.56 212.19" stroke="#FB4C5C" stroke-width="2"/>
<g filter="url(#filter1_d_42_3)">
<path d="M221.34 218.388C220.236 216.475 220.891 214.028 222.804 212.924L255.713 193.924C257.627 192.819 260.073 193.475 261.178 195.388L270.378 211.323C271.482 213.236 270.827 215.682 268.913 216.787L258.15 223.001L255.759 232.003L246.768 229.573L236.004 235.787C234.091 236.891 231.645 236.236 230.54 234.323L221.34 218.388Z" fill="#F7F4FD"/>
<path d="M246.898 229.09L246.698 229.036L246.518 229.14L235.754 235.354C234.08 236.32 231.94 235.747 230.973 234.073L221.773 218.138C220.807 216.464 221.38 214.323 223.054 213.357L255.963 194.357C257.637 193.39 259.778 193.964 260.744 195.638L269.944 211.573C270.911 213.247 270.337 215.387 268.663 216.354L257.9 222.568L257.72 222.672L257.667 222.873L255.405 231.389L246.898 229.09Z" stroke="#E8E0FF"/>
</g>
<path d="M242.511 223.993L236.871 214.224L237.391 213.924L243.031 223.693L242.511 223.993ZM242.046 222.683C241.505 222.995 240.936 223.208 240.337 223.323C239.741 223.427 239.228 223.418 238.798 223.297L238.757 222.53C239.157 222.632 239.622 222.645 240.152 222.57C240.684 222.485 241.19 222.304 241.668 222.028C242.125 221.764 242.464 221.494 242.684 221.22C242.907 220.934 243.028 220.656 243.048 220.386C243.074 220.112 243.019 219.857 242.883 219.622C242.719 219.338 242.504 219.157 242.238 219.08C241.979 218.998 241.689 218.985 241.37 219.04C241.047 219.088 240.704 219.166 240.341 219.274C239.978 219.382 239.614 219.486 239.247 219.587C238.876 219.681 238.514 219.733 238.16 219.744C237.812 219.75 237.488 219.684 237.185 219.544C236.886 219.394 236.624 219.125 236.4 218.737C236.192 218.376 236.096 217.993 236.111 217.587C236.129 217.17 236.283 216.758 236.574 216.35C236.861 215.935 237.313 215.549 237.93 215.193C238.338 214.957 238.778 214.782 239.247 214.668C239.713 214.547 240.15 214.503 240.557 214.536L240.651 215.299C240.219 215.271 239.799 215.31 239.389 215.417C238.987 215.52 238.623 215.666 238.297 215.854C237.861 216.106 237.534 216.373 237.318 216.655C237.102 216.936 236.983 217.218 236.96 217.499C236.941 217.769 237.003 218.028 237.147 218.278C237.311 218.562 237.523 218.744 237.782 218.826C238.048 218.903 238.341 218.914 238.66 218.859C238.987 218.8 239.331 218.717 239.694 218.609C240.056 218.501 240.42 218.402 240.783 218.312C241.154 218.218 241.513 218.168 241.86 218.162C242.211 218.144 242.533 218.207 242.829 218.351C243.131 218.49 243.392 218.751 243.612 219.132C243.816 219.485 243.909 219.87 243.891 220.287C243.869 220.697 243.711 221.111 243.417 221.53C243.126 221.938 242.669 222.323 242.046 222.683ZM245.965 220.337L245.659 219.807L246.973 215.099C247.094 214.669 247.166 214.313 247.188 214.032C247.207 213.744 247.188 213.496 247.133 213.288C247.077 213.08 247.004 212.896 246.912 212.737C246.668 212.314 246.33 212.066 245.899 211.991C245.475 211.913 244.983 212.036 244.421 212.36C243.992 212.608 243.649 212.894 243.392 213.217C243.143 213.537 242.98 213.903 242.904 214.316L242.11 214.165C242.202 213.668 242.418 213.202 242.758 212.766C243.097 212.33 243.54 211.954 244.088 211.638C244.58 211.354 245.052 211.187 245.504 211.139C245.952 211.083 246.359 211.148 246.725 211.334C247.098 211.516 247.401 211.808 247.633 212.21C247.769 212.446 247.868 212.698 247.931 212.966C248 213.231 248.023 213.541 247.997 213.898C247.975 214.243 247.893 214.669 247.752 215.176L246.549 219.501L246.173 219.33L250.683 216.726L251.067 217.391L245.965 220.337ZM254.685 215.385C254.166 215.685 253.622 215.888 253.055 215.994C252.484 216.092 251.978 216.08 251.537 215.956L251.559 215.153C251.927 215.264 252.355 215.285 252.842 215.216C253.336 215.143 253.815 214.973 254.279 214.705C254.896 214.349 255.285 213.944 255.448 213.49C255.614 213.025 255.568 212.57 255.312 212.127C255.132 211.815 254.902 211.592 254.622 211.459C254.344 211.314 253.993 211.281 253.568 211.361C253.142 211.44 252.621 211.658 252.005 212.014L250.456 212.908L248.724 209.044L252.705 206.746L253.089 207.411L249.41 209.535L249.584 208.949L251.026 212.191L250.426 212.039L251.787 211.253C252.521 210.829 253.162 210.579 253.71 210.503C254.257 210.427 254.722 210.496 255.104 210.709C255.489 210.912 255.805 211.228 256.053 211.658C256.289 212.067 256.408 212.497 256.41 212.948C256.408 213.393 256.269 213.824 255.993 214.242C255.717 214.66 255.281 215.041 254.685 215.385Z" fill="#232D42"/>
<path opacity="0.7" d="M154.893 375.265L159.075 382.509L158.129 383.055L153.947 375.811L154.893 375.265ZM159.349 375.797L161.287 379.153C161.447 379.43 161.619 379.594 161.805 379.644C161.987 379.687 162.223 379.624 162.514 379.456L163.211 379.054L163.673 379.854L162.82 380.346C162.294 380.65 161.829 380.757 161.426 380.666C161.022 380.576 160.661 380.254 160.341 379.699L158.403 376.343L157.665 376.769L157.215 375.989L157.953 375.563L157.125 374.129L158.071 373.583L158.899 375.017L160.385 374.159L160.835 374.939L159.349 375.797ZM168.591 372.927C168.695 373.107 168.795 373.304 168.89 373.517L164.338 376.145C164.697 376.686 165.141 377.016 165.672 377.134C166.205 377.242 166.721 377.152 167.22 376.864C167.629 376.628 167.914 376.338 168.076 375.995C168.241 375.641 168.287 375.273 168.214 374.89L169.233 374.302C169.396 374.938 169.349 375.561 169.092 376.171C168.831 376.774 168.361 377.272 167.682 377.664C167.141 377.976 166.586 378.135 166.017 378.14C165.454 378.142 164.924 377.991 164.425 377.688C163.923 377.377 163.502 376.928 163.162 376.339C162.822 375.75 162.641 375.166 162.621 374.586C162.6 374.007 162.733 373.477 163.02 372.998C163.31 372.507 163.732 372.102 164.286 371.782C164.826 371.47 165.372 371.312 165.924 371.307C166.476 371.303 166.982 371.445 167.444 371.732C167.909 372.009 168.291 372.407 168.591 372.927ZM167.5 373.293C167.292 372.933 167.034 372.671 166.727 372.507C166.416 372.335 166.084 372.264 165.73 372.292C165.38 372.31 165.039 372.414 164.706 372.606C164.228 372.882 163.907 373.271 163.744 373.772C163.587 374.268 163.641 374.801 163.904 375.369L167.5 373.293ZM175.456 365.319C175.9 365.063 176.349 364.929 176.803 364.916C177.253 364.896 177.685 365.011 178.098 365.263C178.511 365.514 178.869 365.903 179.173 366.429L181.111 369.786L180.176 370.326L178.316 367.104C177.988 366.536 177.596 366.185 177.14 366.051C176.687 365.906 176.221 365.972 175.743 366.248C175.251 366.532 174.952 366.917 174.845 367.404C174.734 367.884 174.85 368.422 175.194 369.017L177.006 372.156L176.071 372.696L174.211 369.474C173.883 368.906 173.491 368.555 173.035 368.421C172.582 368.276 172.116 368.342 171.638 368.618C171.146 368.902 170.847 369.287 170.74 369.774C170.629 370.254 170.745 370.792 171.089 371.387L172.901 374.526L171.956 375.072L168.668 369.377L169.613 368.831L170.087 369.652C170.102 369.246 170.22 368.873 170.44 368.534C170.666 368.191 170.97 367.909 171.351 367.689C171.829 367.413 172.314 367.276 172.805 367.279C173.296 367.282 173.752 367.439 174.172 367.751C174.099 367.257 174.183 366.793 174.422 366.36C174.661 365.926 175.006 365.579 175.456 365.319ZM182.703 361.37C182.384 360.705 182.342 360.064 182.577 359.448C182.813 358.832 183.284 358.32 183.99 357.912C184.461 357.64 184.917 357.492 185.356 357.469C185.799 357.436 186.19 357.514 186.532 357.705C186.88 357.892 187.16 358.169 187.372 358.537C187.62 358.966 187.709 359.409 187.64 359.865C187.577 360.316 187.375 360.701 187.032 361.019L187.062 361.071C187.576 360.922 188.059 360.934 188.51 361.108C188.961 361.282 189.339 361.632 189.643 362.158C189.871 362.553 189.987 362.962 189.991 363.385C189.991 363.8 189.862 364.202 189.606 364.59C189.35 364.979 188.969 365.319 188.463 365.611C187.729 366.035 187.016 366.192 186.325 366.083C185.63 365.967 185.05 365.572 184.587 364.897L185.502 364.369C185.79 364.757 186.156 364.998 186.599 365.094C187.042 365.189 187.506 365.096 187.991 364.816C188.476 364.536 188.771 364.2 188.876 363.806C188.985 363.402 188.923 362.999 188.691 362.597C188.391 362.077 188.002 361.803 187.523 361.775C187.045 361.746 186.456 361.934 185.756 362.338L185.517 362.476L185.061 361.686L185.31 361.542C185.944 361.167 186.365 360.785 186.575 360.396C186.781 360 186.759 359.588 186.511 359.158C186.299 358.791 186.008 358.566 185.638 358.485C185.274 358.399 184.871 358.484 184.427 358.74C183.998 358.988 183.715 359.299 183.58 359.673C183.445 360.046 183.461 360.434 183.628 360.836L182.703 361.37ZM190.222 359.413C189.534 358.221 189.192 357.181 189.196 356.292C189.196 355.396 189.681 354.668 190.651 354.108C191.614 353.552 192.484 353.498 193.26 353.946C194.032 354.387 194.762 355.203 195.45 356.395C196.15 357.607 196.5 358.661 196.5 359.557C196.5 360.453 196.018 361.18 195.055 361.736C194.085 362.296 193.212 362.351 192.436 361.903C191.66 361.455 190.922 360.625 190.222 359.413ZM194.514 356.935C194.166 356.332 193.831 355.847 193.508 355.479C193.187 355.1 192.829 354.855 192.431 354.743C192.041 354.626 191.613 354.702 191.149 354.97C190.678 355.242 190.392 355.578 190.29 355.979C190.196 356.375 190.229 356.808 190.39 357.279C190.554 357.739 190.81 358.27 191.158 358.873C191.518 359.496 191.858 359.997 192.178 360.376C192.505 360.751 192.864 360.996 193.254 361.112C193.652 361.225 194.086 361.145 194.557 360.873C195.021 360.605 195.301 360.273 195.395 359.876C195.497 359.476 195.463 359.043 195.296 358.576C195.135 358.105 194.874 357.558 194.514 356.935ZM204.92 356.137C204.442 356.413 203.964 356.578 203.487 356.632C203.013 356.674 202.583 356.609 202.196 356.435C201.805 356.254 201.492 355.968 201.257 355.577L202.265 354.995C202.496 355.315 202.801 355.522 203.179 355.618C203.561 355.703 203.987 355.609 204.458 355.337C204.908 355.077 205.198 354.762 205.326 354.392C205.457 354.012 205.421 353.645 205.217 353.291C205.057 353.014 204.851 352.833 204.598 352.748C204.346 352.663 204.079 352.641 203.799 352.683C203.518 352.725 203.154 352.806 202.706 352.926C202.156 353.077 201.699 353.175 201.336 353.218C200.98 353.257 200.622 353.205 200.262 353.062C199.905 352.908 199.597 352.605 199.337 352.155C199.109 351.76 199.007 351.352 199.032 350.931C199.057 350.511 199.202 350.113 199.466 349.739C199.737 349.36 200.108 349.035 200.58 348.763C201.259 348.371 201.911 348.221 202.536 348.313C203.169 348.4 203.675 348.708 204.054 349.238L203.015 349.838C202.82 349.58 202.535 349.422 202.158 349.362C201.778 349.295 201.377 349.384 200.954 349.628C200.559 349.856 200.297 350.146 200.168 350.498C200.034 350.843 200.073 351.199 200.285 351.566C200.437 351.829 200.634 352.002 200.876 352.084C201.124 352.162 201.382 352.185 201.648 352.151C201.918 352.106 202.282 352.025 202.741 351.908C203.295 351.763 203.756 351.673 204.123 351.637C204.486 351.593 204.849 351.647 205.213 351.797C205.573 351.94 205.885 352.241 206.149 352.698C206.353 353.051 206.451 353.438 206.444 353.857C206.437 354.277 206.306 354.69 206.051 355.096C205.796 355.502 205.419 355.849 204.92 356.137ZM207.018 351.005C206.682 350.423 206.505 349.845 206.489 349.273C206.469 348.693 206.593 348.165 206.861 347.686C207.137 347.204 207.528 346.816 208.034 346.524C208.532 346.236 209.028 346.094 209.519 346.096C210.01 346.099 210.44 346.211 210.808 346.433L210.208 345.394L211.164 344.842L214.452 350.537L213.496 351.089L212.884 350.029C212.889 350.469 212.768 350.908 212.522 351.346C212.279 351.773 211.911 352.128 211.419 352.412C210.914 352.704 210.384 352.844 209.831 352.83C209.279 352.817 208.755 352.653 208.259 352.339C207.763 352.024 207.35 351.58 207.018 351.005ZM211.846 348.231C211.598 347.801 211.295 347.477 210.938 347.259C210.581 347.04 210.205 346.933 209.811 346.939C209.42 346.934 209.048 347.033 208.695 347.237C208.341 347.441 208.067 347.71 207.872 348.045C207.677 348.379 207.585 348.755 207.596 349.174C207.607 349.593 207.736 350.017 207.984 350.447C208.236 350.883 208.543 351.214 208.904 351.44C209.261 351.658 209.635 351.77 210.026 351.776C210.413 351.774 210.783 351.671 211.137 351.467C211.49 351.263 211.764 350.994 211.959 350.66C212.157 350.314 212.251 349.932 212.24 349.514C212.225 349.088 212.094 348.66 211.846 348.231ZM212.902 341.178L217.342 348.868L216.396 349.414L211.956 341.724L212.902 341.178ZM222.726 341.672C222.83 341.852 222.93 342.049 223.025 342.261L218.473 344.889C218.832 345.431 219.277 345.761 219.807 345.879C220.34 345.987 220.856 345.897 221.355 345.609C221.764 345.373 222.049 345.083 222.212 344.74C222.377 344.386 222.423 344.018 222.35 343.635L223.368 343.047C223.532 343.683 223.485 344.305 223.228 344.916C222.966 345.519 222.496 346.017 221.817 346.409C221.277 346.721 220.722 346.88 220.152 346.885C219.59 346.887 219.059 346.736 218.561 346.433C218.058 346.122 217.637 345.673 217.297 345.084C216.957 344.495 216.777 343.911 216.756 343.331C216.736 342.752 216.869 342.222 217.155 341.743C217.445 341.252 217.867 340.847 218.421 340.527C218.962 340.215 219.508 340.057 220.059 340.052C220.611 340.048 221.118 340.19 221.579 340.477C222.044 340.754 222.426 341.152 222.726 341.672ZM221.636 342.038C221.428 341.678 221.17 341.416 220.862 341.251C220.551 341.08 220.219 341.009 219.866 341.037C219.516 341.055 219.174 341.159 218.842 341.351C218.364 341.627 218.043 342.016 217.879 342.517C217.723 343.013 217.776 343.546 218.04 344.114L221.636 342.038ZM228.161 342.746C227.725 342.998 227.291 343.152 226.861 343.206C226.426 343.254 226.033 343.204 225.68 343.057C225.323 342.902 225.034 342.658 224.813 342.324L225.79 341.76C225.982 342.028 226.248 342.184 226.587 342.228C226.934 342.268 227.301 342.176 227.689 341.952C228.049 341.744 228.287 341.501 228.403 341.221C228.519 340.942 228.507 340.681 228.367 340.438C228.223 340.189 228.006 340.069 227.716 340.08C227.422 340.083 227.01 340.16 226.477 340.31C225.991 340.443 225.58 340.532 225.246 340.577C224.915 340.612 224.588 340.574 224.266 340.464C223.947 340.343 223.682 340.1 223.47 339.732C223.302 339.441 223.234 339.125 223.267 338.782C223.301 338.44 223.437 338.107 223.675 337.785C223.91 337.455 224.232 337.172 224.64 336.936C225.271 336.572 225.872 336.438 226.444 336.532C227.016 336.627 227.476 336.944 227.824 337.482L226.878 338.028C226.685 337.742 226.426 337.573 226.1 337.521C225.781 337.465 225.439 337.543 225.071 337.755C224.732 337.951 224.504 338.179 224.387 338.441C224.27 338.702 224.279 338.951 224.415 339.186C224.523 339.373 224.672 339.495 224.862 339.552C225.055 339.598 225.263 339.607 225.487 339.579C225.714 339.54 226.017 339.472 226.394 339.374C226.867 339.249 227.264 339.168 227.584 339.131C227.9 339.087 228.211 339.12 228.515 339.231C228.826 339.337 229.085 339.562 229.292 339.904C229.472 340.216 229.547 340.547 229.518 340.896C229.489 341.246 229.357 341.585 229.122 341.915C228.89 342.233 228.57 342.51 228.161 342.746Z" fill="#232D42"/>
<circle cx="143.446" cy="386.706" r="4" transform="rotate(-30 143.446 386.706)" fill="#7951F9"/>
<path d="M172.796 394.431C173.039 394.852 173.159 395.311 173.155 395.808C173.155 396.293 173.015 396.779 172.734 397.264C172.457 397.736 172.048 398.156 171.505 398.523L172.072 399.505L171.296 399.953L170.722 398.959C169.872 399.353 169.081 399.486 168.35 399.358C167.615 399.223 167.033 398.804 166.606 398.102L168.425 397.052C168.81 397.606 169.312 397.785 169.931 397.589L168.594 395.273C167.928 395.464 167.376 395.589 166.936 395.649C166.496 395.708 166.054 395.651 165.608 395.477C165.163 395.303 164.779 394.937 164.457 394.38C164.051 393.677 163.971 392.958 164.215 392.224C164.468 391.486 164.975 390.853 165.738 390.326L165.171 389.344L165.947 388.896L166.514 389.878C167.328 389.495 168.081 389.372 168.775 389.51C169.477 389.644 170.062 390.05 170.529 390.729L168.699 391.786C168.539 391.565 168.337 391.412 168.094 391.326C167.854 391.228 167.596 391.21 167.319 391.273L168.642 393.564C169.337 393.368 169.9 393.242 170.332 393.187C170.767 393.119 171.207 393.172 171.652 393.346C172.093 393.512 172.474 393.873 172.796 394.431ZM166.179 393.273C166.333 393.54 166.539 393.711 166.799 393.788C167.054 393.856 167.365 393.854 167.733 393.782L166.522 391.684C166.255 391.893 166.087 392.135 166.02 392.411C165.953 392.686 166.006 392.974 166.179 393.273ZM170.721 397.165C170.996 396.931 171.162 396.668 171.22 396.376C171.285 396.08 171.239 395.794 171.08 395.519C170.926 395.252 170.718 395.087 170.455 395.023C170.192 394.96 169.872 394.966 169.496 395.043L170.721 397.165ZM176.815 392.047C177.085 392.365 177.389 392.556 177.727 392.619C178.069 392.67 178.434 392.583 178.822 392.359C179.323 392.07 179.567 391.653 179.556 391.111C179.539 390.56 179.247 389.791 178.677 388.805C178.641 389.171 178.495 389.525 178.239 389.866C177.992 390.203 177.674 390.483 177.286 390.707C176.769 391.006 176.239 391.172 175.698 391.204C175.159 391.224 174.648 391.094 174.163 390.813C173.673 390.525 173.253 390.078 172.903 389.471C172.385 388.574 172.241 387.709 172.471 386.876C172.697 386.034 173.27 385.347 174.192 384.815C175.339 384.153 176.36 384.054 177.253 384.519C178.155 384.979 179.033 385.949 179.887 387.428C180.493 388.479 180.897 389.393 181.099 390.171C181.308 390.945 181.291 391.634 181.047 392.238C180.811 392.837 180.314 393.357 179.554 393.795C178.956 394.141 178.381 394.321 177.83 394.338C177.275 394.346 176.776 394.23 176.335 393.988C175.898 393.735 175.532 393.391 175.238 392.957L176.815 392.047ZM176.84 389.122C177.26 388.88 177.517 388.559 177.61 388.16C177.703 387.762 177.624 387.344 177.372 386.908C177.096 386.431 176.755 386.138 176.347 386.028C175.942 385.906 175.522 385.971 175.085 386.223C174.649 386.475 174.38 386.813 174.28 387.237C174.184 387.649 174.264 388.077 174.521 388.521C174.768 388.95 175.092 389.231 175.493 389.366C175.898 389.488 176.347 389.407 176.84 389.122ZM185.01 381.786C184.733 381.493 184.445 381.321 184.145 381.267C183.853 381.21 183.521 381.288 183.149 381.503C182.591 381.825 182.31 382.289 182.304 382.896C182.302 383.49 182.589 384.294 183.164 385.309C183.172 384.874 183.31 384.46 183.579 384.067C183.843 383.667 184.194 383.341 184.63 383.089C185.156 382.785 185.686 382.63 186.221 382.623C186.755 382.616 187.262 382.765 187.74 383.071C188.214 383.369 188.626 383.821 188.976 384.427C189.307 385.001 189.486 385.582 189.513 386.17C189.544 386.745 189.409 387.286 189.109 387.794C188.809 388.301 188.352 388.732 187.738 389.087C186.897 389.572 186.127 389.769 185.427 389.677C184.736 389.58 184.102 389.257 183.525 388.706C182.952 388.142 182.383 387.372 181.818 386.394C180.964 384.914 180.575 383.652 180.65 382.606C180.72 381.552 181.305 380.708 182.405 380.074C183.253 379.584 184.045 379.434 184.78 379.624C185.515 379.814 186.117 380.231 186.586 380.876L185.01 381.786ZM185.047 384.707C184.619 384.954 184.332 385.287 184.185 385.706C184.039 386.124 184.103 386.572 184.379 387.049C184.654 387.526 185.005 387.825 185.43 387.946C185.863 388.062 186.327 387.977 186.82 387.693C187.256 387.441 187.523 387.109 187.619 386.698C187.724 386.282 187.646 385.847 187.384 385.395C187.114 384.926 186.774 384.626 186.364 384.496C185.963 384.361 185.524 384.432 185.047 384.707ZM191.82 384.143C192.223 383.048 192.531 382.154 192.744 381.46C192.953 380.757 193.075 380.083 193.112 379.437C193.148 378.79 193.036 378.241 192.774 377.788C192.536 377.376 192.253 377.109 191.923 376.987C191.594 376.864 191.227 376.92 190.823 377.153C190.419 377.386 190.187 377.703 190.128 378.104C190.063 378.497 190.163 378.93 190.425 379.403L188.776 380.355C188.249 379.367 188.111 378.466 188.363 377.652C188.623 376.833 189.174 376.181 190.015 375.696C190.936 375.164 191.786 375.002 192.563 375.211C193.336 375.411 193.954 375.911 194.416 376.711C194.78 377.342 194.958 378.042 194.95 378.812C194.941 379.582 194.843 380.307 194.654 380.987C194.46 381.66 194.184 382.498 193.826 383.502L197.403 381.437L198.215 382.844L192.225 386.302L191.497 385.041L191.82 384.143ZM200.73 381.666C200.423 381.843 200.115 381.897 199.805 381.828C199.499 381.746 199.265 381.564 199.101 381.281C198.938 380.998 198.9 380.708 198.986 380.41C199.076 380.099 199.275 379.855 199.582 379.678C199.881 379.505 200.184 379.46 200.49 379.542C200.791 379.616 201.023 379.794 201.187 380.077C201.35 380.36 201.391 380.654 201.309 380.96C201.222 381.258 201.029 381.493 200.73 381.666ZM199.531 373.564C199.105 372.732 199.029 371.947 199.302 371.207C199.579 370.454 200.15 369.828 201.015 369.329C201.605 368.988 202.17 368.802 202.712 368.769C203.249 368.729 203.725 368.826 204.141 369.06C204.56 369.281 204.897 369.615 205.154 370.059C205.448 370.568 205.564 371.078 205.503 371.587C205.445 372.084 205.269 372.498 204.975 372.83L205.003 372.878C205.556 372.753 206.069 372.802 206.543 373.024C207.024 373.242 207.433 373.642 207.769 374.224C208.049 374.709 208.185 375.206 208.178 375.717C208.179 376.223 208.025 376.711 207.714 377.181C207.407 377.639 206.95 378.042 206.344 378.392C205.431 378.92 204.554 379.119 203.714 378.989C202.874 378.86 202.179 378.356 201.629 377.477L203.278 376.525C203.523 376.912 203.84 377.154 204.231 377.252C204.625 377.337 205.044 377.252 205.489 376.995C205.901 376.757 206.151 376.462 206.239 376.109C206.33 375.744 206.27 375.38 206.06 375.016C205.78 374.531 205.426 374.272 204.997 374.24C204.569 374.207 204.031 374.377 203.385 374.75L203.033 374.953L202.228 373.559L202.58 373.356C203.727 372.693 204.08 371.978 203.636 371.21C203.436 370.863 203.174 370.653 202.852 370.58C202.538 370.503 202.187 370.576 201.799 370.8C201.419 371.019 201.185 371.295 201.096 371.626C201.011 371.945 201.043 372.271 201.192 372.605L199.531 373.564ZM211.434 372.059C211.704 372.377 212.008 372.568 212.347 372.631C212.688 372.682 213.053 372.595 213.441 372.371C213.942 372.082 214.187 371.666 214.176 371.123C214.159 370.572 213.866 369.803 213.297 368.817C213.26 369.183 213.114 369.537 212.859 369.878C212.612 370.215 212.294 370.496 211.906 370.72C211.389 371.018 210.859 371.184 210.317 371.216C209.779 371.236 209.268 371.106 208.782 370.826C208.293 370.537 207.873 370.09 207.523 369.484C207.005 368.587 206.861 367.721 207.091 366.888C207.316 366.046 207.89 365.36 208.811 364.828C209.959 364.165 210.98 364.066 211.873 364.531C212.775 364.991 213.652 365.961 214.506 367.44C215.113 368.491 215.517 369.405 215.719 370.184C215.928 370.957 215.911 371.646 215.667 372.25C215.431 372.85 214.933 373.369 214.174 373.808C213.575 374.153 213.001 374.334 212.45 374.35C211.894 374.358 211.396 374.242 210.955 374.001C210.517 373.747 210.152 373.403 209.858 372.969L211.434 372.059ZM211.459 369.135C211.88 368.892 212.137 368.571 212.23 368.173C212.323 367.774 212.243 367.356 211.991 366.92C211.716 366.443 211.374 366.15 210.966 366.041C210.562 365.918 210.141 365.983 209.705 366.235C209.268 366.487 209 366.826 208.9 367.25C208.804 367.661 208.884 368.089 209.14 368.534C209.388 368.962 209.712 369.244 210.113 369.378C210.518 369.501 210.966 369.419 211.459 369.135Z" fill="#232D42"/>
<path opacity="0.7" d="M262.28 313.265L266.462 320.509L265.516 321.055L261.334 313.811L262.28 313.265ZM266.736 313.797L268.674 317.153C268.834 317.43 269.007 317.594 269.192 317.644C269.374 317.687 269.611 317.624 269.902 317.456L270.598 317.054L271.06 317.854L270.208 318.346C269.681 318.65 269.216 318.757 268.813 318.666C268.41 318.576 268.048 318.254 267.728 317.699L265.79 314.343L265.052 314.769L264.602 313.989L265.34 313.563L264.512 312.129L265.458 311.583L266.286 313.017L267.772 312.159L268.222 312.939L266.736 313.797ZM275.978 310.927C276.082 311.107 276.182 311.304 276.277 311.517L271.725 314.145C272.084 314.686 272.528 315.016 273.059 315.134C273.592 315.242 274.108 315.152 274.607 314.864C275.016 314.628 275.301 314.338 275.463 313.995C275.629 313.641 275.675 313.273 275.601 312.89L276.62 312.302C276.783 312.938 276.737 313.561 276.479 314.171C276.218 314.774 275.748 315.272 275.069 315.664C274.529 315.976 273.974 316.135 273.404 316.14C272.841 316.142 272.311 315.991 271.812 315.688C271.31 315.377 270.889 314.928 270.549 314.339C270.209 313.75 270.028 313.166 270.008 312.586C269.988 312.007 270.121 311.477 270.407 310.998C270.697 310.507 271.119 310.102 271.673 309.782C272.213 309.47 272.759 309.312 273.311 309.307C273.863 309.303 274.37 309.445 274.831 309.732C275.296 310.009 275.678 310.407 275.978 310.927ZM274.887 311.293C274.679 310.933 274.422 310.671 274.114 310.507C273.803 310.335 273.471 310.264 273.118 310.292C272.767 310.31 272.426 310.414 272.093 310.606C271.615 310.882 271.295 311.271 271.131 311.772C270.975 312.268 271.028 312.801 271.292 313.369L274.887 311.293ZM282.843 303.319C283.287 303.063 283.736 302.929 284.19 302.916C284.641 302.896 285.072 303.011 285.485 303.263C285.898 303.514 286.257 303.903 286.561 304.429L288.499 307.786L287.563 308.326L285.703 305.104C285.375 304.536 284.983 304.185 284.527 304.051C284.074 303.906 283.608 303.972 283.13 304.248C282.638 304.532 282.339 304.917 282.232 305.404C282.121 305.884 282.238 306.422 282.582 307.017L284.394 310.156L283.458 310.696L281.598 307.474C281.27 306.906 280.878 306.555 280.422 306.421C279.969 306.276 279.503 306.342 279.025 306.618C278.534 306.902 278.234 307.287 278.127 307.774C278.016 308.254 278.133 308.792 278.477 309.387L280.289 312.526L279.343 313.072L276.055 307.377L277.001 306.831L277.475 307.652C277.49 307.246 277.607 306.873 277.827 306.534C278.054 306.191 278.357 305.909 278.738 305.689C279.217 305.413 279.701 305.276 280.192 305.279C280.684 305.282 281.139 305.439 281.559 305.751C281.487 305.257 281.57 304.793 281.809 304.36C282.048 303.926 282.393 303.579 282.843 303.319ZM289.268 298.474L288.77 297.611L290.724 296.483L295.062 303.997L294.106 304.549L290.266 297.898L289.268 298.474ZM295.838 301.318L295.424 300.601L296.156 293.444L297.288 292.79L300.144 297.737L301.184 297.137L301.658 297.958L300.618 298.558L301.584 300.231L300.649 300.771L299.683 299.098L295.838 301.318ZM296.965 294.293L296.455 299.867L299.251 298.253L296.965 294.293ZM309.526 295.743C309.048 296.019 308.571 296.183 308.094 296.237C307.62 296.28 307.189 296.214 306.802 296.04C306.412 295.86 306.099 295.574 305.864 295.183L306.872 294.601C307.103 294.92 307.407 295.128 307.786 295.223C308.167 295.308 308.593 295.214 309.064 294.942C309.515 294.682 309.804 294.367 309.932 293.998C310.064 293.617 310.027 293.25 309.823 292.897C309.663 292.62 309.457 292.439 309.205 292.353C308.952 292.268 308.686 292.246 308.405 292.288C308.124 292.33 307.76 292.411 307.312 292.531C306.762 292.683 306.306 292.78 305.943 292.823C305.587 292.863 305.229 292.811 304.869 292.667C304.512 292.513 304.203 292.211 303.943 291.761C303.715 291.366 303.614 290.958 303.639 290.537C303.664 290.116 303.808 289.719 304.073 289.344C304.344 288.966 304.715 288.641 305.186 288.369C305.865 287.977 306.517 287.827 307.143 287.918C307.775 288.006 308.281 288.314 308.661 288.843L307.621 289.443C307.427 289.186 307.141 289.027 306.765 288.968C306.385 288.901 305.983 288.989 305.56 289.233C305.166 289.461 304.903 289.751 304.774 290.103C304.641 290.448 304.68 290.804 304.892 291.171C305.044 291.435 305.241 291.607 305.482 291.69C305.731 291.768 305.988 291.79 306.255 291.756C306.525 291.711 306.889 291.63 307.348 291.513C307.902 291.369 308.362 291.278 308.729 291.242C309.092 291.199 309.456 291.252 309.82 291.402C310.179 291.546 310.491 291.846 310.755 292.303C310.959 292.657 311.058 293.043 311.051 293.463C311.044 293.883 310.913 294.296 310.657 294.702C310.402 295.108 310.025 295.455 309.526 295.743ZM311.624 290.61C311.288 290.028 311.112 289.451 311.095 288.878C311.075 288.299 311.199 287.77 311.468 287.292C311.744 286.809 312.134 286.422 312.64 286.13C313.139 285.842 313.634 285.699 314.125 285.702C314.616 285.705 315.046 285.817 315.414 286.039L314.814 284.999L315.77 284.447L319.058 290.142L318.102 290.694L317.49 289.634C317.495 290.075 317.374 290.514 317.128 290.952C316.885 291.378 316.518 291.734 316.026 292.018C315.52 292.31 314.991 292.449 314.438 292.436C313.885 292.422 313.361 292.258 312.865 291.944C312.37 291.63 311.956 291.185 311.624 290.61ZM316.452 287.836C316.204 287.407 315.902 287.083 315.544 286.864C315.187 286.645 314.812 286.539 314.418 286.545C314.027 286.539 313.655 286.639 313.301 286.843C312.948 287.047 312.674 287.316 312.479 287.65C312.284 287.984 312.192 288.361 312.202 288.78C312.213 289.198 312.343 289.622 312.591 290.052C312.843 290.489 313.149 290.82 313.51 291.045C313.868 291.264 314.242 291.376 314.633 291.381C315.02 291.379 315.39 291.276 315.743 291.072C316.097 290.868 316.371 290.599 316.566 290.265C316.764 289.92 316.857 289.538 316.846 289.119C316.832 288.694 316.7 288.266 316.452 287.836ZM317.508 280.783L321.948 288.474L321.003 289.02L316.563 281.329L317.508 280.783ZM327.333 281.277C327.437 281.457 327.536 281.654 327.632 281.867L323.08 284.495C323.438 285.036 323.883 285.366 324.413 285.485C324.947 285.592 325.463 285.502 325.962 285.214C326.37 284.978 326.656 284.689 326.818 284.346C326.983 283.992 327.029 283.623 326.956 283.241L327.975 282.653C328.138 283.288 328.091 283.911 327.834 284.521C327.573 285.125 327.103 285.623 326.424 286.015C325.883 286.327 325.328 286.485 324.759 286.491C324.196 286.492 323.666 286.341 323.167 286.038C322.665 285.728 322.243 285.278 321.903 284.689C321.563 284.1 321.383 283.516 321.363 282.937C321.342 282.357 321.475 281.828 321.762 281.348C322.051 280.858 322.473 280.453 323.028 280.133C323.568 279.821 324.114 279.662 324.666 279.658C325.217 279.653 325.724 279.795 326.186 280.083C326.651 280.36 327.033 280.758 327.333 281.277ZM326.242 281.644C326.034 281.284 325.776 281.021 325.469 280.857C325.158 280.686 324.825 280.614 324.472 280.643C324.122 280.66 323.781 280.765 323.448 280.957C322.97 281.233 322.649 281.621 322.486 282.122C322.329 282.619 322.383 283.151 322.646 283.72L326.242 281.644ZM332.768 282.352C332.331 282.604 331.898 282.757 331.467 282.812C331.033 282.859 330.639 282.809 330.286 282.662C329.929 282.508 329.641 282.264 329.42 281.929L330.397 281.365C330.588 281.633 330.854 281.789 331.194 281.833C331.54 281.874 331.907 281.782 332.295 281.558C332.656 281.35 332.894 281.106 333.009 280.827C333.125 280.547 333.113 280.286 332.973 280.044C332.829 279.794 332.612 279.675 332.323 279.685C332.029 279.688 331.616 279.765 331.084 279.915C330.597 280.049 330.187 280.138 329.853 280.183C329.521 280.217 329.195 280.179 328.873 280.07C328.554 279.949 328.288 279.705 328.076 279.338C327.908 279.047 327.841 278.73 327.874 278.388C327.907 278.045 328.043 277.713 328.282 277.39C328.516 277.061 328.838 276.778 329.247 276.542C329.877 276.178 330.479 276.043 331.051 276.138C331.623 276.233 332.082 276.549 332.43 277.087L331.484 277.633C331.292 277.347 331.032 277.178 330.707 277.126C330.388 277.07 330.045 277.148 329.678 277.36C329.338 277.556 329.11 277.785 328.993 278.046C328.876 278.308 328.886 278.556 329.022 278.792C329.13 278.979 329.279 279.101 329.468 279.158C329.661 279.203 329.87 279.212 330.094 279.184C330.321 279.146 330.623 279.077 331.001 278.98C331.474 278.854 331.87 278.773 332.19 278.736C332.507 278.692 332.817 278.725 333.121 278.836C333.432 278.943 333.691 279.167 333.898 279.51C334.078 279.822 334.154 280.152 334.124 280.502C334.095 280.851 333.963 281.191 333.728 281.52C333.497 281.839 333.176 282.116 332.768 282.352Z" fill="#232D42"/>
<circle cx="250.833" cy="324.706" r="4" transform="rotate(-30 250.833 324.706)" fill="#DFD5FE"/>
<path d="M279.184 330.699C279.426 331.12 279.546 331.579 279.542 332.076C279.542 332.562 279.402 333.047 279.122 333.532C278.845 334.004 278.435 334.424 277.892 334.791L278.459 335.773L277.684 336.221L277.11 335.227C276.259 335.621 275.469 335.754 274.737 335.626C274.002 335.491 273.42 335.072 272.994 334.37L274.812 333.32C275.197 333.874 275.699 334.053 276.319 333.857L274.982 331.541C274.316 331.732 273.763 331.857 273.323 331.917C272.883 331.976 272.441 331.919 271.996 331.745C271.55 331.571 271.167 331.206 270.845 330.648C270.439 329.945 270.358 329.226 270.602 328.492C270.855 327.754 271.363 327.121 272.126 326.594L271.559 325.612L272.334 325.164L272.901 326.146C273.715 325.763 274.468 325.64 275.162 325.779C275.865 325.912 276.449 326.318 276.917 326.997L275.086 328.054C274.926 327.833 274.725 327.68 274.481 327.594C274.241 327.496 273.983 327.478 273.706 327.541L275.029 329.832C275.724 329.636 276.288 329.51 276.719 329.455C277.154 329.387 277.594 329.44 278.04 329.614C278.48 329.78 278.862 330.142 279.184 330.699ZM272.566 329.541C272.72 329.808 272.927 329.979 273.186 330.056C273.441 330.124 273.753 330.122 274.121 330.05L272.91 327.952C272.642 328.161 272.474 328.403 272.407 328.679C272.34 328.954 272.393 329.242 272.566 329.541ZM277.108 333.433C277.383 333.199 277.549 332.936 277.607 332.644C277.673 332.348 277.626 332.062 277.468 331.787C277.314 331.52 277.105 331.355 276.842 331.291C276.579 331.228 276.259 331.234 275.883 331.311L277.108 333.433ZM283.202 328.315C283.472 328.633 283.776 328.824 284.114 328.887C284.456 328.938 284.821 328.851 285.209 328.627C285.71 328.338 285.955 327.922 285.943 327.379C285.927 326.828 285.634 326.059 285.065 325.073C285.028 325.439 284.882 325.793 284.626 326.134C284.379 326.471 284.061 326.751 283.673 326.975C283.156 327.274 282.627 327.44 282.085 327.472C281.547 327.492 281.035 327.362 280.55 327.081C280.06 326.793 279.64 326.346 279.29 325.74C278.772 324.842 278.628 323.977 278.858 323.144C279.084 322.302 279.657 321.615 280.579 321.083C281.726 320.421 282.747 320.322 283.641 320.787C284.542 321.247 285.42 322.217 286.274 323.696C286.881 324.747 287.285 325.661 287.486 326.439C287.696 327.213 287.678 327.902 287.434 328.506C287.199 329.106 286.701 329.625 285.941 330.063C285.343 330.409 284.768 330.589 284.217 330.606C283.662 330.614 283.163 330.498 282.722 330.257C282.285 330.003 281.919 329.659 281.626 329.225L283.202 328.315ZM283.227 325.39C283.647 325.148 283.904 324.827 283.997 324.428C284.09 324.03 284.011 323.612 283.759 323.176C283.484 322.699 283.142 322.406 282.734 322.296C282.329 322.174 281.909 322.239 281.472 322.491C281.036 322.743 280.768 323.081 280.668 323.505C280.571 323.917 280.651 324.345 280.908 324.789C281.155 325.218 281.479 325.499 281.881 325.634C282.285 325.756 282.734 325.675 283.227 325.39ZM291.397 318.054C291.12 317.762 290.832 317.589 290.532 317.535C290.24 317.478 289.908 317.556 289.536 317.771C288.978 318.093 288.697 318.557 288.692 319.164C288.69 319.758 288.976 320.562 289.551 321.577C289.559 321.142 289.697 320.728 289.966 320.336C290.231 319.935 290.581 319.609 291.018 319.357C291.543 319.053 292.073 318.898 292.608 318.891C293.143 318.884 293.649 319.034 294.128 319.339C294.601 319.637 295.013 320.089 295.363 320.695C295.694 321.269 295.873 321.85 295.9 322.438C295.931 323.013 295.796 323.555 295.496 324.062C295.196 324.569 294.739 325 294.125 325.355C293.284 325.84 292.514 326.037 291.814 325.945C291.123 325.848 290.489 325.525 289.912 324.974C289.339 324.41 288.77 323.64 288.205 322.662C287.351 321.182 286.962 319.92 287.037 318.874C287.108 317.82 287.693 316.976 288.792 316.342C289.641 315.852 290.432 315.702 291.167 315.892C291.902 316.082 292.504 316.499 292.973 317.144L291.397 318.054ZM291.435 320.975C291.006 321.222 290.719 321.555 290.573 321.974C290.426 322.392 290.491 322.84 290.766 323.317C291.041 323.794 291.392 324.093 291.817 324.214C292.251 324.33 292.714 324.245 293.207 323.961C293.643 323.709 293.91 323.377 294.007 322.966C294.111 322.55 294.033 322.115 293.771 321.663C293.501 321.194 293.161 320.894 292.752 320.764C292.35 320.629 291.911 320.7 291.435 320.975ZM298.207 320.411C298.61 319.317 298.918 318.422 299.131 317.728C299.34 317.025 299.462 316.351 299.499 315.705C299.535 315.059 299.423 314.509 299.162 314.057C298.924 313.644 298.64 313.377 298.311 313.255C297.981 313.132 297.615 313.188 297.21 313.421C296.806 313.654 296.574 313.971 296.515 314.372C296.451 314.765 296.55 315.198 296.812 315.672L295.164 316.624C294.636 315.635 294.498 314.734 294.75 313.92C295.011 313.101 295.561 312.449 296.402 311.964C297.323 311.432 298.173 311.27 298.95 311.479C299.724 311.679 300.341 312.179 300.803 312.98C301.167 313.61 301.345 314.31 301.337 315.08C301.329 315.85 301.23 316.575 301.041 317.255C300.847 317.928 300.571 318.766 300.213 319.77L303.79 317.705L304.602 319.112L298.613 322.57L297.885 321.309L298.207 320.411ZM307.117 317.934C306.81 318.111 306.502 318.166 306.193 318.096C305.887 318.014 305.652 317.832 305.489 317.549C305.325 317.266 305.287 316.976 305.374 316.678C305.464 316.367 305.662 316.123 305.969 315.946C306.268 315.773 306.571 315.728 306.877 315.81C307.178 315.884 307.411 316.062 307.574 316.345C307.737 316.628 307.778 316.922 307.696 317.228C307.609 317.526 307.416 317.761 307.117 317.934ZM305.918 309.832C305.492 309.001 305.416 308.215 305.689 307.475C305.966 306.722 306.537 306.096 307.402 305.597C307.992 305.256 308.558 305.07 309.099 305.037C309.636 304.997 310.112 305.094 310.528 305.328C310.947 305.55 311.285 305.883 311.541 306.327C311.835 306.836 311.952 307.346 311.89 307.855C311.832 308.352 311.656 308.766 311.363 309.098L311.391 309.146C311.943 309.021 312.457 309.07 312.93 309.292C313.411 309.51 313.82 309.91 314.156 310.492C314.436 310.977 314.572 311.475 314.565 311.985C314.567 312.491 314.412 312.979 314.101 313.449C313.794 313.907 313.338 314.311 312.731 314.661C311.818 315.188 310.941 315.387 310.102 315.257C309.262 315.128 308.567 314.624 308.016 313.746L309.665 312.794C309.91 313.18 310.228 313.423 310.618 313.52C311.012 313.605 311.432 313.52 311.876 313.263C312.288 313.025 312.538 312.73 312.626 312.378C312.717 312.012 312.657 311.648 312.447 311.284C312.167 310.799 311.813 310.54 311.385 310.508C310.956 310.475 310.419 310.645 309.772 311.018L309.42 311.221L308.615 309.827L308.967 309.624C310.115 308.961 310.467 308.246 310.024 307.478C309.823 307.131 309.561 306.921 309.239 306.848C308.925 306.771 308.574 306.844 308.186 307.068C307.806 307.287 307.572 307.563 307.483 307.894C307.398 308.213 307.43 308.539 307.58 308.873L305.918 309.832ZM317.821 308.327C318.091 308.645 318.396 308.836 318.734 308.899C319.076 308.95 319.441 308.863 319.829 308.639C320.33 308.35 320.574 307.934 320.563 307.391C320.546 306.84 320.254 306.071 319.684 305.085C319.648 305.451 319.502 305.805 319.246 306.147C318.999 306.483 318.681 306.764 318.293 306.988C317.776 307.286 317.246 307.452 316.705 307.485C316.166 307.504 315.655 307.374 315.17 307.094C314.68 306.805 314.26 306.358 313.91 305.752C313.392 304.855 313.248 303.989 313.478 303.156C313.704 302.314 314.277 301.628 315.198 301.096C316.346 300.433 317.367 300.334 318.26 300.799C319.162 301.259 320.04 302.229 320.894 303.708C321.5 304.759 321.904 305.673 322.106 306.452C322.315 307.225 322.298 307.914 322.054 308.518C321.818 309.118 321.321 309.637 320.561 310.076C319.963 310.421 319.388 310.602 318.837 310.618C318.281 310.626 317.783 310.51 317.342 310.269C316.905 310.015 316.539 309.671 316.245 309.237L317.821 308.327ZM317.847 305.403C318.267 305.16 318.524 304.839 318.617 304.441C318.71 304.042 318.631 303.624 318.379 303.188C318.103 302.711 317.762 302.418 317.354 302.309C316.949 302.187 316.529 302.252 316.092 302.504C315.656 302.756 315.387 303.094 315.287 303.518C315.191 303.929 315.271 304.357 315.527 304.802C315.775 305.23 316.099 305.512 316.5 305.647C316.905 305.769 317.354 305.687 317.847 305.403Z" fill="#232D42"/>
</g>
</g>
<g filter="url(#filter2_d_42_3)">
<rect x="337.683" y="171.681" width="273.996" height="196.82" rx="19.5" transform="rotate(-30 337.683 171.681)" fill="white" stroke="#F1ECFF"/>
<path d="M429.753 274.888C439.923 269.016 431.306 254.091 441.578 248.161C451.747 242.289 448.457 236.59 458.728 230.66C468.898 224.788 456.805 203.843 467.077 197.913C477.247 192.042 483.396 202.692 493.667 196.762C503.837 190.891 515.23 210.624 525.4 204.753C535.671 198.823 518.232 168.617 528.401 162.745C538.673 156.815 557.86 190.049 568.03 184.177C578.302 178.247 576.06 174.364 586.23 168.493C596.501 162.563 603.452 174.603 613.622 168.731" stroke="#7951F9" stroke-width="2"/>
<path d="M429.753 274.888C439.923 269.016 433.519 257.925 443.791 251.994C453.96 246.123 459.571 255.841 469.843 249.911C480.012 244.04 478.122 240.765 488.393 234.835C498.563 228.963 490.838 215.583 501.109 209.653C511.279 203.781 502.354 188.323 512.524 182.452C522.795 176.521 534.769 197.261 544.939 191.39C555.21 185.459 551.002 178.171 561.172 172.299C571.443 166.369 575.082 172.672 585.252 166.8C595.524 160.87 603.452 174.603 613.622 168.731" stroke="#F25368" stroke-width="2"/>
<path d="M432.718 273.176C433.204 274.018 432.916 274.987 432.228 275.384C431.541 275.78 430.558 275.545 430.072 274.704C429.586 273.862 429.874 272.894 430.562 272.497C431.249 272.1 432.232 272.335 432.718 273.176Z" fill="white" stroke="#1F78B4" stroke-width="2"/>
<circle cx="442.869" cy="247.108" r="1.5" transform="rotate(-30 442.869 247.108)" fill="white" stroke="#7951F9" stroke-width="2"/>
<circle cx="460.33" cy="229.329" r="1.5" transform="rotate(-30 460.33 229.329)" fill="white" stroke="#7951F9" stroke-width="2"/>
<circle cx="468.577" cy="196.855" r="1.5" transform="rotate(-30 468.577 196.855)" fill="white" stroke="#7951F9" stroke-width="2"/>
<circle cx="495.372" cy="195.241" r="1.5" transform="rotate(-30 495.372 195.241)" fill="white" stroke="#7951F9" stroke-width="2"/>
<path d="M528.383 202.548C528.869 203.389 528.581 204.358 527.893 204.755C527.206 205.152 526.223 204.917 525.737 204.076C525.251 203.234 525.539 202.265 526.227 201.868C526.914 201.471 527.897 201.707 528.383 202.548Z" fill="white" stroke="#7951F9" stroke-width="2"/>
<circle cx="529.867" cy="161.469" r="1.5" transform="rotate(-30 529.867 161.469)" fill="white" stroke="#7951F9" stroke-width="2"/>
<circle cx="569.662" cy="182.373" r="1.5" transform="rotate(-30 569.662 182.373)" fill="white" stroke="#7951F9" stroke-width="2"/>
<path d="M589.339 166.585C589.825 167.427 589.537 168.395 588.849 168.792C588.162 169.189 587.179 168.954 586.693 168.113C586.207 167.271 586.495 166.302 587.183 165.905C587.87 165.509 588.853 165.744 589.339 166.585Z" fill="white" stroke="#7951F9" stroke-width="2"/>
<path d="M617.134 166.704C617.62 167.545 617.332 168.514 616.644 168.911C615.957 169.308 614.974 169.073 614.488 168.231C614.002 167.39 614.29 166.421 614.977 166.024C615.665 165.627 616.648 165.862 617.134 166.704Z" fill="white" stroke="#7951F9" stroke-width="2"/>
<circle cx="431.288" cy="273.81" r="1.5" transform="rotate(-30 431.288 273.81)" fill="white" stroke="#F25368" stroke-width="2"/>
<circle cx="444.869" cy="250.573" r="1.5" transform="rotate(-30 444.869 250.573)" fill="white" stroke="#F25368" stroke-width="2"/>
<circle cx="471.33" cy="248.382" r="1.5" transform="rotate(-30 471.33 248.382)" fill="white" stroke="#F25368" stroke-width="2"/>
<circle cx="489.577" cy="233.228" r="1.5" transform="rotate(-30 489.577 233.228)" fill="white" stroke="#F25368" stroke-width="2"/>
<circle cx="502.705" cy="207.943" r="1.5" transform="rotate(-30 502.705 207.943)" fill="white" stroke="#F25368" stroke-width="2"/>
<circle cx="513.953" cy="180.665" r="1.5" transform="rotate(-30 513.953 180.665)" fill="white" stroke="#F25368" stroke-width="2"/>
<circle cx="546.2" cy="189.759" r="1.5" transform="rotate(-30 546.2 189.759)" fill="white" stroke="#F25368" stroke-width="2"/>
<circle cx="562.995" cy="170.825" r="1.5" transform="rotate(-30 562.995 170.825)" fill="white" stroke="#F25368" stroke-width="2"/>
<circle cx="586.909" cy="165.486" r="1.5" transform="rotate(-30 586.909 165.486)" fill="white" stroke="#F25368" stroke-width="2"/>
<circle cx="615.704" cy="167.337" r="1.5" transform="rotate(-30 615.704 167.337)" fill="white" stroke="#F25368" stroke-width="2"/>
<g filter="url(#filter3_d_42_3)">
<path d="M411.945 233.306C410.84 231.393 411.496 228.947 413.409 227.842L441.122 211.842C443.035 210.738 445.481 211.393 446.586 213.306L453.386 225.084C454.49 226.997 453.835 229.444 451.922 230.548L443.014 235.691L440.765 243.225L433.117 241.406L424.209 246.548C422.296 247.653 419.849 246.998 418.745 245.084L411.945 233.306Z" fill="#F7F4FD"/>
<path d="M433.232 240.919L433.039 240.873L432.867 240.973L423.959 246.115C422.285 247.082 420.144 246.508 419.178 244.834L412.378 233.056C411.411 231.382 411.985 229.242 413.659 228.275L441.372 212.275C443.046 211.309 445.186 211.882 446.153 213.556L452.953 225.334C453.919 227.008 453.346 229.149 451.672 230.115L442.764 235.258L442.592 235.358L442.535 235.548L440.421 242.629L433.232 240.919Z" stroke="#E8E0FF"/>
</g>
<path d="M429.494 233.035C429.661 233.323 429.745 233.636 429.748 233.974C429.756 234.308 429.671 234.641 429.494 234.975C429.323 235.304 429.059 235.595 428.704 235.846L429.109 236.548L428.546 236.873L428.141 236.171C427.568 236.433 427.031 236.516 426.53 236.42C426.028 236.325 425.641 236.041 425.368 235.567L426.424 234.957C426.571 235.172 426.752 235.318 426.966 235.395C427.176 235.466 427.411 235.453 427.671 235.357L426.571 233.452C426.128 233.577 425.756 233.661 425.457 233.703C425.155 233.739 424.854 233.697 424.554 233.578C424.26 233.455 424.003 233.203 423.783 232.822C423.506 232.343 423.445 231.851 423.6 231.345C423.751 230.835 424.083 230.396 424.596 230.031L424.191 229.33L424.754 229.005L425.159 229.706C425.694 229.459 426.194 229.386 426.66 229.486C427.129 229.577 427.521 229.851 427.838 230.307L426.782 230.917C426.661 230.748 426.5 230.629 426.299 230.561C426.094 230.486 425.876 230.482 425.644 230.546L426.724 232.417C427.164 232.286 427.536 232.202 427.838 232.166C428.137 232.124 428.434 232.165 428.728 232.288C429.019 232.405 429.274 232.654 429.494 233.035ZM424.757 232.19C424.894 232.427 425.07 232.571 425.285 232.624C425.506 232.674 425.77 232.664 426.076 232.595L425.066 230.845C424.835 231.017 424.687 231.222 424.624 231.459C424.566 231.692 424.61 231.936 424.757 232.19ZM428.234 235.032C428.465 234.845 428.606 234.629 428.657 234.384C428.704 234.133 428.661 233.892 428.528 233.662C428.395 233.431 428.219 233.293 428.002 233.25C427.786 233.197 427.526 233.205 427.219 233.274L428.234 235.032ZM432.042 232.06C432.32 231.261 432.529 230.617 432.67 230.127C432.813 229.629 432.895 229.15 432.915 228.692C432.935 228.234 432.849 227.838 432.656 227.503C432.456 227.156 432.215 226.933 431.934 226.834C431.659 226.731 431.346 226.781 430.994 226.984C430.653 227.181 430.451 227.444 430.387 227.773C430.326 228.094 430.394 228.439 430.592 228.809L429.64 229.359C429.277 228.691 429.183 228.075 429.359 227.512C429.536 226.94 429.917 226.486 430.5 226.149C431.129 225.786 431.72 225.676 432.272 225.819C432.83 225.959 433.276 226.317 433.609 226.894C433.849 227.31 433.974 227.773 433.984 228.283C433.996 228.784 433.943 229.273 433.825 229.749C433.71 230.216 433.542 230.778 433.322 231.437L433.132 232.008L435.877 230.423L436.352 231.246L432.144 233.676L431.729 232.957L432.042 232.06ZM438.531 222.817L435.63 224.492L436.625 226.215C436.653 225.984 436.754 225.745 436.927 225.498C437.106 225.249 437.332 225.045 437.603 224.889C438.088 224.609 438.541 224.486 438.961 224.521C439.387 224.552 439.755 224.689 440.065 224.934C440.381 225.175 440.641 225.471 440.844 225.823C441.091 226.251 441.227 226.68 441.253 227.111C441.282 227.534 441.186 227.935 440.967 228.316C440.754 228.693 440.41 229.018 439.937 229.292C439.308 229.655 438.713 229.791 438.152 229.699C437.59 229.607 437.124 229.326 436.752 228.856L437.714 228.301C437.934 228.535 438.2 228.67 438.513 228.705C438.822 228.734 439.142 228.654 439.471 228.464C439.881 228.227 440.115 227.926 440.174 227.562C440.238 227.193 440.152 226.804 439.915 226.394C439.675 225.979 439.388 225.721 439.054 225.622C438.716 225.516 438.345 225.581 437.941 225.814C437.658 225.977 437.46 226.188 437.347 226.445C437.236 226.694 437.208 226.964 437.261 227.257L436.326 227.797L434.221 224.151L438.031 221.951L438.531 222.817Z" fill="#232D42"/>
<path d="M388.993 178.477L391.539 193.127L388.594 194.827L377.18 185.297L379.778 183.797L388.654 191.49L386.412 179.967L388.993 178.477ZM392.456 178.278C392.029 178.525 391.594 178.599 391.152 178.5C390.715 178.383 390.38 178.122 390.147 177.718C389.913 177.314 389.858 176.899 389.982 176.474C390.111 176.03 390.389 175.685 390.816 175.438C391.243 175.191 391.676 175.126 392.113 175.244C392.555 175.343 392.892 175.594 393.126 175.998C393.359 176.402 393.411 176.826 393.283 177.27C393.159 177.696 392.883 178.032 392.456 178.278ZM394.311 178.732L399.851 188.327L397.426 189.727L391.886 180.132L394.311 178.732ZM408.277 176.788C408.477 177.135 408.634 177.46 408.748 177.764L401.733 181.814C402.191 182.473 402.747 182.876 403.4 183.022C404.054 183.168 404.693 183.061 405.317 182.701C406.217 182.181 406.635 181.424 406.569 180.43L409.185 178.92C409.441 180.004 409.35 181.073 408.911 182.127C408.466 183.169 407.672 184.02 406.529 184.68C405.605 185.213 404.657 185.491 403.684 185.514C402.717 185.518 401.809 185.265 400.96 184.754C400.122 184.237 399.42 183.488 398.854 182.506C398.28 181.513 397.979 180.525 397.95 179.541C397.921 178.557 398.153 177.653 398.647 176.829C399.141 176.005 399.862 175.319 400.809 174.773C401.721 174.246 402.648 173.972 403.591 173.951C404.545 173.924 405.428 174.161 406.241 174.662C407.058 175.144 407.737 175.853 408.277 176.788ZM405.366 177.546C404.994 176.929 404.482 176.562 403.83 176.446C403.171 176.318 402.524 176.438 401.889 176.804C401.289 177.151 400.887 177.629 400.685 178.239C400.488 178.83 400.529 179.476 400.81 180.176L405.366 177.546ZM420.699 163.497L423.433 174.712L420.818 176.222L415.199 170.529L417.319 178.242L414.686 179.762L406.323 171.797L408.783 170.377L414.7 176.706L412.316 168.337L414.88 166.857L420.891 173.108L418.378 164.837L420.699 163.497ZM431.313 170.37C430.528 170.824 429.744 171.092 428.96 171.175C428.17 171.246 427.45 171.146 426.801 170.874C426.163 170.596 425.656 170.172 425.282 169.604L427.724 168.194C427.983 168.536 428.339 168.739 428.791 168.802C429.254 168.857 429.722 168.749 430.196 168.475C430.658 168.209 430.962 167.91 431.11 167.578C431.269 167.24 431.265 166.927 431.098 166.638C430.918 166.326 430.623 166.189 430.213 166.225C429.808 166.243 429.206 166.36 428.406 166.576C427.59 166.816 426.898 166.977 426.33 167.059C425.773 167.134 425.217 167.078 424.662 166.89C424.118 166.696 423.66 166.275 423.287 165.628C422.98 165.097 422.85 164.526 422.897 163.913C422.956 163.295 423.194 162.695 423.613 162.114C424.044 161.527 424.646 161.01 425.42 160.563C426.563 159.903 427.642 159.665 428.657 159.849C429.665 160.022 430.483 160.573 431.112 161.503L428.791 162.843C428.537 162.482 428.202 162.275 427.787 162.222C427.376 162.151 426.934 162.252 426.461 162.526C426.022 162.779 425.728 163.057 425.579 163.358C425.441 163.653 425.456 163.945 425.622 164.234C425.809 164.557 426.114 164.712 426.537 164.699C426.954 164.673 427.553 164.551 428.334 164.331C429.127 164.104 429.802 163.953 430.359 163.878C430.916 163.802 431.469 163.868 432.019 164.074C432.574 164.261 433.041 164.67 433.419 165.298C433.739 165.852 433.87 166.439 433.811 167.058C433.764 167.67 433.526 168.269 433.095 168.857C432.669 169.426 432.075 169.93 431.313 170.37Z" fill="#232D42"/>
<rect opacity="0.2" x="536.013" y="87.1977" width="31" height="31" rx="3.5" transform="rotate(-30 536.013 87.1977)" stroke="#232D42"/>
<path fill-rule="evenodd" clip-rule="evenodd" d="M550.323 92.9845C549.771 92.0279 550.099 90.8047 551.055 90.2524L557.983 86.2524C558.94 85.7002 560.163 86.0279 560.716 86.9845L564.716 93.9127C565.268 94.8693 564.94 96.0925 563.983 96.6447L557.055 100.645C556.099 101.197 554.876 100.869 554.323 99.9127L550.323 92.9845Z" stroke="#232D42" stroke-width="2" stroke-linecap="round" stroke-linejoin="round"/>
<path d="M556.162 85.7642L557.495 88.0736" stroke="#232D42" stroke-width="2" stroke-linecap="round" stroke-linejoin="round"/>
<path d="M551.543 88.4307L552.877 90.7401" stroke="#232D42" stroke-width="2" stroke-linecap="round" stroke-linejoin="round"/>
<path d="M551.323 94.7163L561.716 88.7163" stroke="#232D42" stroke-width="2" stroke-linecap="round" stroke-linejoin="round"/>
<path opacity="0.5" d="M531.026 256.966L534.511 263.002L533.723 263.457L530.238 257.421L531.026 256.966ZM534.796 257.375L536.411 260.172C536.545 260.403 536.689 260.54 536.844 260.581C536.995 260.617 537.192 260.565 537.435 260.425L538.015 260.09L538.4 260.756L537.69 261.166C537.251 261.42 536.864 261.509 536.527 261.433C536.191 261.358 535.89 261.089 535.623 260.627L534.008 257.83L533.393 258.185L533.018 257.536L533.633 257.181L532.943 255.986L533.731 255.531L534.421 256.726L535.66 256.011L536.035 256.66L534.796 257.375ZM542.556 254.95C542.643 255.101 542.726 255.264 542.805 255.442L539.012 257.632C539.311 258.083 539.681 258.358 540.123 258.457C540.568 258.546 540.998 258.471 541.414 258.231C541.754 258.035 541.992 257.793 542.127 257.507C542.265 257.212 542.303 256.906 542.242 256.587L543.091 256.097C543.227 256.626 543.188 257.145 542.974 257.654C542.756 258.157 542.364 258.571 541.799 258.898C541.348 259.158 540.886 259.29 540.411 259.295C539.942 259.296 539.5 259.171 539.085 258.918C538.666 258.659 538.315 258.284 538.032 257.794C537.748 257.303 537.598 256.816 537.581 256.333C537.564 255.85 537.675 255.409 537.914 255.01C538.155 254.601 538.507 254.263 538.969 253.996C539.419 253.736 539.874 253.605 540.334 253.601C540.793 253.597 541.216 253.715 541.6 253.955C541.988 254.186 542.306 254.517 542.556 254.95ZM541.647 255.256C541.474 254.956 541.259 254.737 541.003 254.6C540.744 254.457 540.467 254.398 540.172 254.421C539.881 254.436 539.596 254.523 539.319 254.683C538.921 254.913 538.653 255.237 538.517 255.654C538.387 256.068 538.431 256.512 538.651 256.986L541.647 255.256ZM548.335 248.577C548.705 248.364 549.079 248.252 549.457 248.241C549.833 248.224 550.192 248.321 550.536 248.53C550.881 248.74 551.179 249.064 551.433 249.502L553.048 252.3L552.268 252.75L550.718 250.065C550.445 249.592 550.118 249.299 549.738 249.187C549.36 249.067 548.973 249.121 548.574 249.351C548.164 249.588 547.915 249.909 547.826 250.315C547.733 250.715 547.83 251.163 548.117 251.659L549.627 254.275L548.847 254.725L547.297 252.04C547.024 251.567 546.697 251.274 546.317 251.162C545.94 251.042 545.552 251.096 545.153 251.326C544.743 251.563 544.494 251.884 544.405 252.29C544.312 252.69 544.409 253.138 544.696 253.634L546.206 256.25L545.418 256.705L542.678 251.959L543.466 251.504L543.861 252.188C543.874 251.85 543.971 251.539 544.155 251.256C544.343 250.97 544.597 250.736 544.914 250.552C545.313 250.322 545.716 250.208 546.126 250.211C546.535 250.213 546.915 250.344 547.265 250.604C547.204 250.192 547.274 249.806 547.473 249.444C547.672 249.083 547.96 248.794 548.335 248.577ZM557.167 244.61L557.738 246.358L558.933 245.668L559.333 246.361L557.991 247.136L558.619 249.083L557.865 249.518L557.237 247.571L555.419 248.621L556.046 250.568L555.293 251.003L554.665 249.056L553.306 249.841L552.906 249.148L554.413 248.278L553.842 246.53L552.499 247.305L552.099 246.612L553.589 245.752L552.961 243.805L553.715 243.37L554.342 245.317L556.161 244.267L555.533 242.32L556.287 241.885L556.914 243.832L558.118 243.137L558.518 243.83L557.167 244.61ZM556.414 245.045L554.595 246.095L555.166 247.843L556.985 246.793L556.414 245.045ZM561.716 246.452C562.109 245.44 562.406 244.626 562.605 244.011C562.8 243.39 562.921 242.792 562.968 242.219C563.016 241.637 562.926 241.146 562.696 240.748C562.479 240.373 562.217 240.132 561.908 240.025C561.603 239.909 561.248 239.967 560.844 240.201C560.451 240.427 560.217 240.728 560.141 241.103C560.067 241.469 560.14 241.862 560.359 242.282L559.597 242.722C559.247 242.062 559.155 241.449 559.321 240.883C559.487 240.318 559.862 239.867 560.445 239.53C561.04 239.187 561.605 239.08 562.142 239.209C562.684 239.334 563.122 239.686 563.455 240.263C563.732 240.743 563.857 241.294 563.832 241.916C563.809 242.53 563.716 243.115 563.552 243.671C563.385 244.222 563.15 244.889 562.848 245.672L565.827 243.952L566.207 244.61L562.041 247.015L561.716 246.452Z" fill="#232D42"/>
<circle cx="519.263" cy="267.186" r="4" transform="rotate(-30 519.263 267.186)" fill="#F25368"/>
<path opacity="0.5" d="M464.342 295.466L467.827 301.502L467.039 301.957L463.554 295.921L464.342 295.466ZM468.113 295.875L469.728 298.672C469.861 298.903 470.005 299.04 470.16 299.081C470.312 299.117 470.509 299.065 470.751 298.925L471.331 298.59L471.716 299.256L471.006 299.666C470.567 299.92 470.18 300.009 469.844 299.933C469.508 299.858 469.206 299.589 468.94 299.127L467.325 296.33L466.71 296.685L466.335 296.036L466.95 295.681L466.26 294.486L467.048 294.031L467.738 295.226L468.976 294.511L469.351 295.16L468.113 295.875ZM475.873 293.45C475.959 293.601 476.042 293.764 476.122 293.942L472.328 296.132C472.627 296.583 472.998 296.858 473.44 296.957C473.884 297.046 474.314 296.971 474.73 296.731C475.071 296.535 475.309 296.293 475.444 296.007C475.581 295.712 475.62 295.406 475.559 295.087L476.407 294.597C476.544 295.126 476.505 295.645 476.29 296.154C476.073 296.657 475.681 297.071 475.115 297.398C474.665 297.658 474.202 297.79 473.728 297.795C473.259 297.796 472.817 297.671 472.401 297.418C471.982 297.159 471.631 296.784 471.348 296.294C471.065 295.803 470.915 295.316 470.898 294.833C470.88 294.35 470.991 293.909 471.23 293.51C471.472 293.101 471.823 292.763 472.285 292.496C472.735 292.236 473.19 292.105 473.65 292.101C474.11 292.097 474.532 292.215 474.917 292.455C475.304 292.686 475.623 293.017 475.873 293.45ZM474.964 293.756C474.79 293.456 474.576 293.237 474.319 293.1C474.06 292.957 473.783 292.898 473.489 292.921C473.197 292.936 472.912 293.023 472.635 293.183C472.237 293.413 471.97 293.737 471.833 294.154C471.703 294.568 471.748 295.012 471.967 295.486L474.964 293.756ZM481.651 287.077C482.021 286.864 482.395 286.752 482.774 286.741C483.149 286.724 483.509 286.821 483.853 287.03C484.197 287.24 484.496 287.564 484.749 288.002L486.364 290.8L485.585 291.25L484.035 288.565C483.761 288.092 483.435 287.799 483.055 287.687C482.677 287.567 482.289 287.621 481.891 287.851C481.481 288.088 481.231 288.409 481.142 288.815C481.049 289.215 481.147 289.663 481.433 290.159L482.943 292.775L482.164 293.225L480.614 290.54C480.34 290.067 480.014 289.774 479.634 289.662C479.256 289.542 478.868 289.596 478.47 289.826C478.06 290.063 477.81 290.384 477.721 290.79C477.629 291.19 477.726 291.638 478.012 292.134L479.522 294.75L478.734 295.205L475.994 290.459L476.782 290.004L477.177 290.688C477.19 290.35 477.288 290.039 477.471 289.756C477.66 289.47 477.913 289.236 478.231 289.052C478.629 288.822 479.033 288.708 479.442 288.711C479.851 288.713 480.231 288.844 480.581 289.104C480.521 288.692 480.59 288.306 480.79 287.944C480.989 287.583 481.276 287.294 481.651 287.077ZM490.484 283.11L491.055 284.858L492.25 284.168L492.65 284.861L491.307 285.636L491.935 287.583L491.181 288.018L490.554 286.071L488.735 287.121L489.363 289.068L488.609 289.503L487.982 287.556L486.622 288.341L486.222 287.648L487.729 286.778L487.158 285.03L485.816 285.805L485.416 285.112L486.905 284.252L486.278 282.305L487.031 281.87L487.659 283.817L489.477 282.767L488.85 280.82L489.603 280.385L490.231 282.332L491.435 281.637L491.835 282.33L490.484 283.11ZM489.73 283.545L487.912 284.595L488.482 286.343L490.301 285.293L489.73 283.545ZM492.085 280.106L491.67 279.388L493.298 278.448L496.913 284.709L496.116 285.169L492.916 279.626L492.085 280.106Z" fill="#232D42"/>
<circle cx="451.713" cy="306.186" r="4" transform="rotate(-30 451.713 306.186)" fill="#7951F9"/>
</g>
<defs>
<filter id="filter0_d_42_3" x="49.3171" y="146.317" width="330.43" height="302.373" filterUnits="userSpaceOnUse" color-interpolation-filters="sRGB">
<feFlood flood-opacity="0" result="BackgroundImageFix"/>
<feColorMatrix in="SourceAlpha" type="matrix" values="0 0 0 0 0 0 0 0 0 0 0 0 0 0 0 0 0 0 127 0" result="hardAlpha"/>
<feOffset dy="4"/>
<feGaussianBlur stdDeviation="2"/>
<feComposite in2="hardAlpha" operator="out"/>
<feColorMatrix type="matrix" values="0 0 0 0 0 0 0 0 0 0 0 0 0 0 0 0 0 0 0.25 0"/>
<feBlend mode="normal" in2="BackgroundImageFix" result="effect1_dropShadow_42_3"/>
<feBlend mode="normal" in="SourceGraphic" in2="effect1_dropShadow_42_3" result="shape"/>
</filter>
<filter id="filter1_d_42_3" x="210.804" y="189.387" width="70.1104" height="62.936" filterUnits="userSpaceOnUse" color-interpolation-filters="sRGB">
<feFlood flood-opacity="0" result="BackgroundImageFix"/>
<feColorMatrix in="SourceAlpha" type="matrix" values="0 0 0 0 0 0 0 0 0 0 0 0 0 0 0 0 0 0 127 0" result="hardAlpha"/>
<feOffset dy="6"/>
<feGaussianBlur stdDeviation="5"/>
<feColorMatrix type="matrix" values="0 0 0 0 0.863571 0 0 0 0 0.82875 0 0 0 0 0.975 0 0 0 0.4 0"/>
<feBlend mode="normal" in2="BackgroundImageFix" result="effect1_dropShadow_42_3"/>
<feBlend mode="normal" in="SourceGraphic" in2="effect1_dropShadow_42_3" result="shape"/>
</filter>
<filter id="filter2_d_42_3" x="340.317" y="41.3169" width="330.43" height="302.182" filterUnits="userSpaceOnUse" color-interpolation-filters="sRGB">
<feFlood flood-opacity="0" result="BackgroundImageFix"/>
<feColorMatrix in="SourceAlpha" type="matrix" values="0 0 0 0 0 0 0 0 0 0 0 0 0 0 0 0 0 0 127 0" result="hardAlpha"/>
<feOffset dy="4"/>
<feGaussianBlur stdDeviation="2"/>
<feComposite in2="hardAlpha" operator="out"/>
<feColorMatrix type="matrix" values="0 0 0 0 0 0 0 0 0 0 0 0 0 0 0 0 0 0 0.25 0"/>
<feBlend mode="normal" in2="BackgroundImageFix" result="effect1_dropShadow_42_3"/>
<feBlend mode="normal" in="SourceGraphic" in2="effect1_dropShadow_42_3" result="shape"/>
</filter>
<filter id="filter3_d_42_3" x="401.408" y="207.306" width="62.5142" height="55.7793" filterUnits="userSpaceOnUse" color-interpolation-filters="sRGB">
<feFlood flood-opacity="0" result="BackgroundImageFix"/>
<feColorMatrix in="SourceAlpha" type="matrix" values="0 0 0 0 0 0 0 0 0 0 0 0 0 0 0 0 0 0 127 0" result="hardAlpha"/>
<feOffset dy="6"/>
<feGaussianBlur stdDeviation="5"/>
<feColorMatrix type="matrix" values="0 0 0 0 0.863571 0 0 0 0 0.82875 0 0 0 0 0.975 0 0 0 0.4 0"/>
<feBlend mode="normal" in2="BackgroundImageFix" result="effect1_dropShadow_42_3"/>
<feBlend mode="normal" in="SourceGraphic" in2="effect1_dropShadow_42_3" result="shape"/>
</filter>
</defs>
</svg>
